{"glyphs":{"0":{"ha":603,"x_min":0,"x_max":0,"o":"m 388 940 b 234 954 343 976 284 986 b 120 788 176 917 142 850 b 70 509 87 699 74 603 b 101 211 67 409 75 307 b 352 -24 128 107 211 -87 b 470 120 411 2 447 64 b 530 390 507 206 523 298 b 533 469 532 417 533 443 b 492 758 532 566 522 665 b 388 940 472 823 442 896 z m 437 205 b 352 47 420 148 395 87 b 346 42 350 46 348 44 b 344 41 345 42 344 41 b 329 32 339 37 334 35 b 324 30 329 31 326 30 b 319 28 323 29 321 28 b 311 26 316 27 314 26 b 307 25 311 26 308 25 b 295 25 303 25 299 25 b 291 26 294 25 292 26 b 283 28 288 26 286 27 b 276 30 281 28 279 29 b 276 30 276 30 276 30 b 258 41 270 33 264 37 b 212 95 243 52 224 75 b 173 182 195 123 183 152 b 131 432 145 263 133 348 b 157 701 128 523 135 614 b 237 877 172 763 195 831 b 283 911 252 894 268 906 b 291 913 286 911 288 912 b 295 913 292 913 294 913 b 307 913 299 913 303 913 b 316 911 307 913 315 912 b 324 909 319 911 321 910 b 325 908 324 909 325 909 b 329 906 326 908 328 907 b 382 856 351 894 367 877 b 430 756 403 825 418 791 b 472 469 461 664 472 566 b 437 205 472 380 462 291 z "},"1":{"ha":333,"x_min":0,"x_max":0,"o":"m 121 778 b 203 867 148 808 176 837 b 203 624 203 786 203 705 b 203 117 203 455 203 286 b 203 0 203 78 203 39 b 264 0 203 -39 264 -39 b 264 320 264 107 264 213 b 264 827 264 489 264 658 b 264 944 264 866 264 905 b 212 965 264 969 230 985 b 78 821 167 917 123 869 b 121 778 51 793 94 750 z "},"2":{"ha":615,"x_min":0,"x_max":0,"o":"m 514 25 b 143 32 390 27 267 29 b 168 239 135 101 131 178 b 176 251 169 240 177 251 b 176 251 176 251 176 251 b 184 258 179 253 182 256 b 214 285 194 267 204 276 b 426 472 285 347 355 410 b 503 541 451 495 477 518 b 521 561 510 547 516 552 b 545 693 540 599 546 650 b 436 911 543 779 505 859 b 213 949 373 958 288 977 b 70 753 133 919 66 843 b 216 573 73 670 132 590 b 232 631 253 565 269 623 b 133 730 182 641 145 681 b 183 864 121 781 144 831 b 460 793 275 940 408 891 b 468 590 493 730 491 655 b 303 444 413 541 358 493 b 187 341 264 410 226 375 b 132 292 169 325 149 310 b 81 156 99 257 86 203 b 87 2 75 105 81 53 b 117 -28 89 -14 99 -28 b 514 -36 249 -31 382 -33 b 514 25 552 -36 552 24 z "},"3":{"ha":633,"x_min":0,"x_max":0,"o":"m 477 40 b 541 174 514 75 537 123 b 512 275 543 206 540 257 b 382 355 469 303 425 329 b 288 414 351 375 319 394 b 522 648 366 492 444 570 b 554 680 533 658 544 669 b 557 767 572 700 562 743 b 526 846 551 795 540 822 b 204 943 460 954 318 988 b 75 806 142 919 89 873 b 138 627 60 739 85 671 b 180 627 150 617 168 615 b 180 670 191 638 193 659 b 131 783 147 698 125 738 b 202 877 137 825 166 857 b 456 840 282 920 394 909 b 503 713 487 805 501 759 b 255 466 420 631 338 549 b 218 430 243 454 231 442 b 225 382 204 416 208 393 b 452 242 300 335 376 288 b 475 227 459 237 467 232 b 381 48 496 152 453 77 b 154 87 308 18 206 22 b 139 192 130 117 121 157 b 87 222 157 226 105 257 b 189 -11 38 130 99 27 b 477 40 282 -49 403 -31 z "},"4":{"ha":603,"x_min":0,"x_max":0,"o":"m 100 363 b 302 445 174 363 241 406 b 466 527 351 477 406 518 b 471 215 468 423 469 319 b 473 10 471 147 472 78 b 533 10 474 -29 534 -29 b 524 733 530 251 527 492 b 521 938 523 801 522 870 b 461 938 521 977 460 977 b 466 588 462 821 464 705 b 287 507 400 580 342 542 b 130 426 240 477 187 437 b 130 867 130 573 130 720 b 130 934 130 890 130 912 b 69 934 130 973 69 973 b 69 459 69 776 69 617 b 69 393 69 437 69 415 b 100 363 69 377 83 363 z "},"5":{"ha":588,"x_min":0,"x_max":0,"o":"m 343 -33 b 380 -20 356 -31 370 -30 b 436 48 400 0 418 25 b 504 129 459 75 482 102 b 518 156 511 137 517 145 b 518 172 518 161 518 167 b 518 254 518 199 518 226 b 518 498 518 335 518 417 b 518 663 518 553 518 608 b 488 693 518 678 504 695 b 160 662 378 683 269 672 b 144 660 155 661 149 661 b 144 904 144 741 144 823 b 488 904 259 904 373 904 b 488 964 526 904 526 964 b 127 964 367 964 247 964 b 106 956 118 964 111 961 b 84 928 94 953 84 944 b 84 627 84 828 84 727 b 114 597 84 612 97 595 b 441 629 223 608 332 618 b 458 630 447 629 452 630 b 458 218 458 493 458 356 b 458 166 458 201 458 183 b 342 28 419 120 380 74 b 125 134 256 12 162 54 b 84 145 118 149 97 152 b 73 104 69 136 66 118 b 209 -18 100 46 151 5 b 298 -35 237 -29 268 -35 b 343 -33 313 -36 328 -35 z "},"6":{"ha":632,"x_min":0,"x_max":0,"o":"m 562 121 b 562 422 562 222 562 322 b 562 465 562 437 562 451 b 548 491 562 476 557 486 b 311 526 478 531 389 535 b 135 473 251 519 187 505 b 257 817 147 593 181 724 b 417 911 298 869 353 905 b 447 941 433 912 447 923 b 417 971 447 956 433 972 b 76 485 186 952 98 679 b 114 142 62 370 68 250 b 242 -8 140 83 183 22 b 322 10 266 -19 300 2 b 540 92 395 38 467 65 b 562 121 553 97 562 107 z m 284 60 b 261 52 276 57 269 54 b 144 244 195 94 162 170 b 130 395 133 293 129 344 b 315 467 176 440 251 460 b 502 447 376 473 446 472 b 502 164 502 353 502 259 b 502 142 502 157 502 150 b 284 60 430 115 357 88 z "},"7":{"ha":574,"x_min":0,"x_max":0,"o":"m 500 922 b 404 972 487 967 444 973 b 98 968 302 971 200 969 b 98 908 60 968 60 908 b 354 911 184 909 269 910 b 413 912 374 912 394 912 b 443 904 424 912 439 915 b 440 867 447 893 442 878 b 426 802 435 845 430 823 b 316 302 389 635 353 468 b 255 20 296 208 275 114 b 313 4 246 -17 304 -33 b 430 541 352 183 391 362 b 489 809 450 630 469 719 b 500 922 496 844 511 885 z "},"8":{"ha":726,"x_min":0,"x_max":0,"o":"m 550 411 b 586 457 563 426 576 441 b 612 510 597 474 605 492 b 615 551 618 524 623 537 b 559 633 598 579 578 606 b 368 915 495 727 431 821 b 343 951 359 927 351 939 b 339 957 342 953 340 955 b 269 969 323 979 292 972 b 72 806 183 956 89 897 b 205 560 54 704 129 618 b 219 549 209 556 214 552 b 151 481 194 529 171 507 b 114 429 137 464 125 447 b 93 361 102 409 81 384 b 135 287 105 335 121 311 b 293 7 187 193 240 100 b 308 -20 298 -2 302 -11 b 356 -39 318 -36 338 -37 b 426 -39 379 -42 402 -42 b 641 112 518 -28 606 24 b 582 380 678 204 645 308 b 550 411 572 391 562 401 z m 137 733 b 152 839 124 770 128 808 b 248 903 175 871 211 892 b 297 911 265 908 281 910 b 530 570 375 797 452 684 b 556 531 538 557 547 544 b 543 501 552 521 548 511 b 534 487 540 496 537 492 b 530 480 533 485 531 482 b 529 479 529 479 529 479 b 503 449 521 468 512 459 b 338 546 451 486 393 515 b 215 628 295 570 252 595 b 137 733 183 657 151 691 z m 594 168 b 411 19 581 80 495 25 b 353 22 392 18 372 19 b 171 344 293 129 232 237 b 153 376 165 355 159 366 b 200 447 167 401 182 425 b 272 514 221 473 246 495 b 470 399 338 475 408 443 b 474 396 471 398 473 397 b 482 381 475 391 477 385 b 504 372 487 376 495 372 b 594 168 562 321 607 249 z "},"9":{"ha":632,"x_min":0,"x_max":0,"o":"m 389 967 b 310 949 366 978 332 957 b 92 867 237 921 164 894 b 69 838 79 862 69 852 b 69 537 69 737 69 637 b 69 494 69 522 69 508 b 84 468 69 483 75 473 b 321 433 154 428 243 424 b 497 486 381 440 445 454 b 375 142 485 366 451 235 b 215 48 333 90 279 54 b 185 18 199 47 185 36 b 215 -12 185 3 199 -13 b 556 474 446 7 533 280 b 517 817 570 589 564 709 b 389 967 492 876 449 937 z m 317 492 b 130 512 256 486 185 487 b 130 795 130 606 130 701 b 130 817 130 802 130 809 b 348 899 202 844 275 871 b 371 907 356 902 363 905 b 488 715 437 865 470 789 b 502 564 499 666 503 615 b 317 492 456 519 381 499 z "},"\u0000":{"ha":0,"x_min":0,"x_max":0,"o":""},"\n":{"ha":0,"x_min":0,"x_max":0,"o":""},"\r":{"ha":0,"x_min":0,"x_max":0,"o":""}," ":{"ha":286,"x_min":0,"x_max":0,"o":""},"!":{"ha":199,"x_min":0,"x_max":0,"o":"m 69 915 b 69 103 69 644 69 374 b 130 103 69 65 130 65 b 130 915 130 374 130 644 b 69 915 130 954 69 954 z m 100 39 b 100 -21 61 39 61 -21 b 100 39 138 -21 138 39 z "},"\"":{"ha":285,"x_min":0,"x_max":0,"o":"m 133 908 l 133 908 b 114 921 129 914 122 918 b 75 906 100 925 83 919 b 89 855 64 888 70 865 b 108 852 95 852 102 851 b 117 831 117 847 119 841 b 128 826 116 824 124 821 b 139 894 145 853 144 878 b 133 908 138 899 136 904 z m 212 894 b 206 908 211 899 209 904 l 206 908 b 187 921 201 914 195 918 b 148 906 172 925 156 919 b 162 855 136 888 143 865 b 181 852 168 852 174 851 b 190 831 190 847 192 841 b 201 826 188 824 197 821 b 212 894 218 853 216 878 z "},"“":{"ha":285,"x_min":0,"x_max":0,"o":"m 133 908 l 133 908 b 114 921 129 914 122 918 b 75 906 100 925 83 919 b 89 855 64 888 70 865 b 108 852 95 852 102 851 b 117 831 117 847 119 841 b 128 826 116 824 124 821 b 139 894 145 853 144 878 b 133 908 138 899 136 904 z m 212 894 b 206 908 211 899 209 904 l 206 908 b 187 921 201 914 195 918 b 148 906 172 925 156 919 b 162 855 136 888 143 865 b 181 852 168 852 174 851 b 190 831 190 847 192 841 b 201 826 188 824 197 821 b 212 894 218 853 216 878 z "},"#":{"ha":519,"x_min":0,"x_max":0,"o":"m 421 398 b 372 398 405 398 388 398 b 372 502 372 433 372 467 b 421 502 388 502 405 502 b 421 562 460 502 460 562 b 372 562 405 562 388 562 b 372 751 372 625 372 688 b 312 751 372 790 312 790 b 312 562 312 688 312 625 b 212 562 279 562 246 562 b 212 759 212 628 212 693 b 152 759 212 797 152 797 b 152 562 152 693 152 628 b 98 562 134 562 116 562 b 98 502 60 562 60 502 b 152 502 116 502 134 502 b 152 398 152 467 152 433 b 98 398 134 398 116 398 b 98 338 60 398 60 338 b 152 338 116 338 134 338 b 152 260 152 312 152 286 b 212 260 152 221 212 221 b 212 338 212 286 212 312 b 312 338 246 338 279 338 b 312 252 312 309 312 281 b 372 252 312 214 372 214 b 372 338 372 281 372 309 b 421 338 388 338 405 338 b 421 398 460 338 460 398 z m 312 398 b 212 398 279 398 246 398 b 212 502 212 433 212 467 b 312 502 246 502 279 502 b 312 398 312 467 312 433 z "},"$":{"ha":489,"x_min":0,"x_max":0,"o":"m 404 310 b 376 342 395 321 386 332 b 238 501 330 395 284 448 b 140 615 205 539 173 577 b 152 754 126 661 126 712 b 251 815 174 788 210 811 b 368 700 290 777 329 738 b 410 742 396 672 438 715 b 293 858 371 781 332 819 b 290 861 292 859 291 860 b 290 936 290 886 290 911 b 230 936 290 975 230 975 b 230 874 230 915 230 895 b 177 855 211 870 193 863 b 74 713 122 827 84 773 b 76 619 69 682 70 650 b 94 577 79 604 83 589 b 129 536 105 563 117 550 b 263 381 174 484 219 433 b 356 275 294 345 325 310 b 290 137 369 220 339 162 b 276 136 285 137 280 137 b 122 274 224 182 173 228 b 79 231 93 300 50 257 b 208 116 122 193 165 155 b 252 77 223 103 237 89 b 254 76 253 76 253 76 b 254 -9 254 47 254 19 b 314 -9 254 -48 314 -48 b 314 80 314 20 314 50 b 339 96 323 85 332 91 b 394 157 361 112 380 133 b 418 234 408 181 416 207 b 404 310 421 258 420 291 z "},"%":{"ha":565,"x_min":0,"x_max":0,"o":"m 495 152 b 450 260 491 190 480 233 b 347 258 420 288 377 287 b 304 129 315 225 305 174 b 365 129 304 90 364 90 b 379 198 365 152 368 177 b 392 217 382 205 386 212 b 397 220 393 217 396 219 b 399 221 398 220 398 220 b 400 221 396 221 396 221 b 407 217 403 221 404 220 b 421 198 413 212 418 205 b 435 141 430 181 434 161 b 322 30 397 104 359 67 b 204 27 283 29 244 28 b 370 694 259 249 314 471 b 420 896 386 761 403 829 b 391 934 425 916 411 934 b 272 939 351 936 312 937 b 231 940 258 939 244 941 b 190 912 213 939 202 924 b 91 811 157 878 124 844 b 80 799 87 807 83 803 b 71 748 67 785 69 767 b 115 645 76 712 87 671 b 218 648 146 617 189 618 b 261 776 251 681 260 732 b 200 776 261 815 201 815 b 186 707 200 753 197 729 b 173 689 183 700 179 694 b 168 685 173 689 169 686 b 166 685 168 685 167 685 b 165 685 169 685 169 685 b 158 688 162 685 161 685 b 144 707 152 693 148 700 b 131 765 135 725 132 745 b 243 879 168 803 205 841 b 352 875 279 878 316 877 b 186 206 297 652 242 429 b 136 4 170 139 153 71 b 165 -34 132 -15 145 -35 b 283 -32 204 -34 244 -33 b 333 -30 299 -31 316 -31 b 371 -7 351 -29 359 -18 b 472 93 405 26 438 60 b 486 106 477 98 481 102 b 495 152 498 119 496 135 z "},"&":{"ha":694,"x_min":0,"x_max":0,"o":"m 537 66 b 617 357 608 144 641 252 b 559 341 608 395 550 379 b 509 125 576 266 555 185 b 507 122 508 124 508 123 b 409 307 474 184 442 246 b 327 460 382 358 355 409 b 285 539 313 486 299 513 b 299 567 290 548 295 558 b 435 567 345 567 390 567 b 461 612 459 567 471 592 b 388 755 436 660 412 707 b 337 853 371 788 354 820 b 312 903 329 870 322 887 b 238 940 298 926 264 940 b 162 894 206 940 178 922 b 156 700 130 838 141 760 b 216 541 169 645 191 592 b 82 276 166 455 107 374 b 73 227 78 260 75 243 b 74 176 71 212 66 190 b 86 163 77 171 82 167 b 137 115 103 147 120 131 b 274 -15 183 72 229 28 b 292 -32 280 -20 286 -26 b 331 -43 304 -42 315 -45 b 483 19 385 -34 439 -13 b 491 25 486 21 489 23 b 522 -33 502 6 512 -13 b 574 -2 540 -67 592 -36 b 537 66 562 21 549 44 z m 202 812 b 223 875 203 832 206 862 b 244 879 229 880 237 881 b 259 872 250 877 254 874 b 261 871 260 871 261 871 b 284 826 271 859 277 840 b 330 735 299 796 315 765 b 386 627 349 699 367 663 b 281 627 351 627 316 627 b 255 612 271 627 259 621 b 252 606 254 610 253 608 b 243 626 249 613 246 620 b 202 812 219 685 201 748 z m 328 18 b 148 187 268 74 208 131 b 131 204 142 193 137 198 b 249 479 138 306 195 393 b 323 341 273 433 298 387 b 463 78 370 253 416 166 b 328 18 424 47 377 27 z "},"'":{"ha":211,"x_min":0,"x_max":0,"o":"m 133 908 l 133 908 b 114 921 129 914 122 918 b 75 906 100 925 83 919 b 89 855 64 888 70 865 b 108 852 95 852 102 851 b 117 831 117 847 119 841 b 128 826 116 824 124 821 b 139 894 145 853 144 878 b 133 908 138 899 136 904 z "},"‘":{"ha":211,"x_min":0,"x_max":0,"o":"m 133 908 l 133 908 b 114 921 129 914 122 918 b 75 906 100 925 83 919 b 89 855 64 888 70 865 b 108 852 95 852 102 851 b 117 831 117 847 119 841 b 128 826 116 824 124 821 b 139 894 145 853 144 878 b 133 908 138 899 136 904 z "},"(":{"ha":369,"x_min":0,"x_max":0,"o":"m 142 490 b 262 826 182 602 222 714 b 299 928 274 860 287 894 b 241 944 312 965 254 981 b 146 677 209 855 177 766 b 87 513 126 623 107 568 b 72 472 82 499 77 486 b 70 453 70 465 70 460 b 74 361 69 423 71 392 b 207 -22 89 225 134 94 b 259 8 228 -55 280 -24 b 137 337 196 108 154 220 b 130 421 133 365 131 393 b 130 441 130 427 130 434 b 129 453 130 441 130 452 b 130 453 129 453 130 453 b 142 490 133 466 138 478 z "},")":{"ha":344,"x_min":0,"x_max":0,"o":"m 273 488 b 265 575 272 517 269 546 b 126 937 247 704 199 829 b 75 907 105 969 53 939 b 201 596 137 813 180 707 b 211 517 206 570 209 544 b 214 477 213 504 213 490 b 215 465 214 475 214 465 b 205 435 213 455 208 445 b 103 108 171 326 137 217 b 72 8 93 75 82 41 b 130 -8 60 -29 118 -45 b 212 255 157 80 184 167 b 261 412 228 307 245 360 b 273 449 265 424 269 436 b 273 488 276 461 274 475 z "},"*":{"ha":463,"x_min":0,"x_max":0,"o":"m 379 706 b 288 763 349 725 318 744 b 379 820 318 782 349 801 b 349 872 412 841 382 893 b 261 817 320 854 291 835 b 261 919 261 851 261 885 b 201 919 261 958 201 958 b 201 817 201 885 201 851 b 114 872 172 835 143 854 b 84 820 81 893 51 841 b 175 763 114 801 144 782 b 84 706 144 744 114 725 b 114 654 51 685 81 633 b 201 708 143 672 172 690 b 201 606 201 674 201 640 b 261 606 201 567 261 567 b 261 708 261 640 261 674 b 349 654 291 690 320 672 b 379 706 382 633 412 685 z "},"+":{"ha":519,"x_min":0,"x_max":0,"o":"m 421 450 b 290 450 378 450 334 450 b 290 581 290 493 290 537 b 230 581 290 620 230 620 b 230 450 230 537 230 493 b 98 450 186 450 142 450 b 98 390 60 450 60 390 b 230 390 142 390 186 390 b 230 258 230 346 230 302 b 290 258 230 219 290 219 b 290 390 290 302 290 346 b 421 390 334 390 378 390 b 421 450 460 390 460 450 z "},",":{"ha":211,"x_min":0,"x_max":0,"o":"m 139 36 b 133 50 138 41 136 46 l 133 50 b 114 63 129 56 122 60 b 75 48 100 67 83 61 b 89 -3 64 30 70 7 b 108 -6 95 -6 102 -7 b 117 -27 117 -10 119 -17 b 128 -32 116 -34 124 -37 b 139 36 145 -5 144 20 z "},"-":{"ha":519,"x_min":0,"x_max":0,"o":"m 421 450 b 98 450 314 450 206 450 b 98 390 60 450 60 390 b 421 390 206 390 314 390 b 421 450 460 390 460 450 z "},".":{"ha":211,"x_min":0,"x_max":0,"o":"m 106 -7 b 142 30 126 -7 142 10 b 106 66 142 50 126 66 b 69 30 86 66 69 50 b 106 -7 69 10 86 -7 z "},"/":{"ha":588,"x_min":0,"x_max":0,"o":"m 496 941 b 459 920 479 946 465 935 b 157 200 358 680 258 440 b 71 -5 128 131 100 63 b 92 -42 65 -20 78 -38 b 129 -21 109 -47 123 -36 b 431 699 230 219 330 459 b 517 904 460 767 488 836 b 496 941 523 919 510 937 z "},":":{"ha":457,"x_min":0,"x_max":0,"o":"m 366 373 b 183 447 305 397 244 422 b 366 512 244 469 305 491 b 387 550 381 518 391 533 b 350 571 383 565 365 576 b 91 478 263 540 177 509 b 91 419 61 467 63 430 b 350 314 177 384 263 349 b 387 336 365 308 383 321 b 366 373 392 353 381 367 z "},";":{"ha":457,"x_min":0,"x_max":0,"o":"m 367 478 b 108 571 280 509 194 540 b 71 550 92 576 75 565 b 92 512 66 533 76 518 b 274 447 153 491 213 469 b 92 373 213 422 153 397 b 71 336 77 367 66 353 b 108 314 75 321 93 308 b 367 419 194 349 280 384 b 367 478 394 430 396 467 z "},"<":{"ha":211,"x_min":0,"x_max":0,"o":"m 106 508 b 142 545 126 508 142 525 b 106 581 142 565 126 581 b 69 545 86 581 69 565 b 106 508 69 525 86 508 z m 106 342 b 142 379 126 342 142 359 b 106 415 142 399 126 415 b 69 379 86 415 69 399 b 106 342 69 359 86 342 z "},"=":{"ha":519,"x_min":0,"x_max":0,"o":"m 98 483 b 421 483 206 483 314 483 b 421 543 460 483 460 543 b 98 543 314 543 206 543 b 98 483 60 543 60 483 z m 421 383 b 98 383 314 383 206 383 b 98 323 60 383 60 323 b 421 323 206 323 314 323 b 421 383 460 323 460 383 z "},">":{"ha":211,"x_min":0,"x_max":0,"o":"m 133 405 l 133 405 b 114 418 129 411 122 416 b 75 403 100 423 83 416 b 89 353 64 385 70 362 b 108 349 95 350 102 349 b 117 328 117 345 119 339 b 128 324 116 322 124 318 b 139 391 145 351 144 376 b 133 405 138 396 136 401 z m 106 508 b 142 545 126 508 142 525 b 106 581 142 565 126 581 b 69 545 86 581 69 565 b 106 508 69 525 86 508 z "},"?":{"ha":583,"x_min":0,"x_max":0,"o":"m 285 -7 b 321 30 305 -7 321 10 b 285 66 321 50 305 66 b 248 30 265 66 248 50 b 285 -7 248 10 265 -7 z m 505 715 b 497 724 502 718 500 721 b 466 763 487 737 476 750 b 373 879 435 802 404 841 b 310 958 352 905 331 931 b 267 958 300 970 278 969 b 159 839 231 918 195 878 b 98 771 139 816 118 794 b 87 759 94 767 90 764 b 73 716 77 748 76 731 b 69 664 71 699 69 681 b 129 435 70 584 96 507 b 170 424 136 420 157 417 b 181 465 186 433 188 451 b 136 724 144 545 117 636 b 287 890 186 779 237 835 b 438 702 338 827 388 765 b 454 682 443 695 449 689 b 369 428 453 591 412 507 b 260 164 324 344 275 259 b 281 127 257 148 264 131 b 318 148 295 123 315 132 b 514 675 349 336 509 479 b 505 715 515 690 514 702 z "},"@":{"ha":1079,"x_min":0,"x_max":0,"o":"m 972 679 b 734 890 925 779 835 851 b 179 749 544 964 309 909 b 147 179 52 592 28 347 b 399 1 208 92 298 31 b 753 9 514 -34 639 -24 b 841 39 783 17 813 28 b 862 76 856 45 867 59 b 825 97 858 90 841 103 b 499 42 722 56 611 31 b 254 148 410 51 321 87 b 133 377 187 208 145 288 b 175 632 122 463 137 555 b 614 859 255 794 437 882 b 856 741 704 848 792 807 b 949 483 922 673 958 578 b 808 289 940 401 887 318 b 607 370 730 261 646 298 b 588 429 597 388 591 408 b 544 447 586 448 559 456 b 419 370 502 421 461 396 b 419 509 419 416 419 463 b 628 509 488 509 558 509 b 628 424 628 481 628 453 b 688 424 628 386 688 386 b 688 539 688 463 688 501 b 658 569 688 555 674 569 b 389 569 568 569 478 569 b 359 539 372 569 359 555 b 359 317 359 465 359 391 b 404 291 359 294 384 279 b 540 374 449 318 494 346 b 730 220 568 292 644 231 b 972 360 830 208 925 275 b 972 679 1026 459 1019 579 z "},"A":{"ha":531,"x_min":0,"x_max":0,"o":"m 333 744 b 297 952 321 813 309 882 b 260 973 294 968 274 977 b 238 938 243 968 236 953 b 107 218 195 698 151 458 b 70 14 95 150 82 82 b 91 -23 67 -2 74 -19 b 128 -2 106 -27 125 -19 b 196 369 151 121 173 245 b 337 369 243 369 290 369 b 366 200 347 312 357 256 b 403 -8 378 131 391 61 b 440 -29 405 -24 425 -33 b 461 8 456 -24 463 -8 b 333 744 418 253 375 499 z m 207 429 b 260 724 224 527 242 625 b 268 767 263 738 265 752 b 327 429 288 654 307 541 b 207 429 287 429 247 429 z "},"B":{"ha":471,"x_min":0,"x_max":0,"o":"m 70 501 b 70 209 70 404 70 307 b 70 1 70 140 70 71 b 79 -20 70 -8 74 -16 b 121 -21 90 -32 108 -36 b 360 233 201 63 280 148 b 393 269 371 245 382 257 b 393 312 403 280 406 301 b 155 503 314 375 235 439 b 149 508 153 504 151 506 b 353 660 217 559 285 610 b 387 686 364 669 376 677 b 393 733 401 696 409 719 b 155 935 314 800 234 868 b 121 963 144 944 133 954 b 79 963 109 974 91 975 b 76 960 77 962 77 961 b 75 959 75 959 75 959 b 75 959 75 959 75 959 b 70 945 72 955 71 951 b 70 938 70 943 70 940 b 70 511 70 796 70 653 b 70 501 69 508 69 504 z m 316 296 b 327 287 320 293 324 290 b 130 76 262 217 196 147 b 130 446 130 200 130 323 b 316 296 192 396 254 346 z m 316 719 b 323 713 319 717 321 715 b 130 569 259 665 194 617 b 130 733 130 624 130 679 b 130 877 130 781 130 829 b 316 719 192 824 254 772 z "},"C":{"ha":540,"x_min":0,"x_max":0,"o":"m 353 -16 b 387 -3 366 -19 381 -15 b 467 149 414 48 440 98 b 415 179 485 183 433 214 b 346 47 392 135 369 91 b 208 129 291 62 245 86 b 198 143 203 135 203 135 b 184 164 193 150 188 157 b 165 205 176 179 170 191 b 138 319 152 241 143 280 b 140 627 125 420 125 527 b 219 850 151 704 171 786 b 224 856 219 850 223 855 b 232 865 227 859 230 862 b 250 882 238 871 244 876 b 254 885 251 883 253 884 b 255 886 254 885 255 886 b 264 892 258 888 261 890 b 282 901 270 895 276 899 b 282 902 282 901 282 902 b 287 903 284 902 285 903 b 296 906 290 904 293 905 b 306 908 299 907 302 908 b 310 909 307 909 308 909 b 310 909 310 909 310 909 b 329 910 317 910 323 910 b 334 909 330 910 332 909 b 404 786 357 868 381 827 b 456 817 423 753 475 783 b 410 897 440 844 425 870 b 384 944 401 913 392 928 b 379 951 382 946 381 949 b 340 969 370 966 355 967 b 153 859 260 978 193 924 b 70 504 89 755 73 623 b 121 156 67 388 72 263 b 353 -16 165 60 253 6 z m 283 902 b 283 902 285 903 284 903 z "},"D":{"ha":517,"x_min":0,"x_max":0,"o":"m 129 -5 b 131 -3 130 -4 130 -3 b 394 341 217 113 308 225 b 447 431 414 368 441 396 b 410 533 453 470 431 502 b 280 727 366 598 323 662 b 131 949 230 801 181 875 b 127 953 130 951 129 952 b 69 942 117 980 69 976 b 69 209 69 698 69 454 b 69 1 69 140 69 71 b 129 -5 69 -35 123 -37 z m 330 544 b 360 500 340 529 350 514 b 385 458 369 486 380 473 b 348 379 396 430 363 399 b 224 216 308 324 266 270 b 130 94 192 176 161 135 b 130 734 130 307 130 520 b 130 843 130 770 130 807 b 330 544 196 743 263 644 z "},"E":{"ha":454,"x_min":0,"x_max":0,"o":"m 100 -30 b 355 -30 185 -30 270 -30 b 355 30 394 -30 394 30 b 130 30 280 30 205 30 b 130 369 130 143 130 256 b 263 369 174 369 219 369 b 263 429 302 369 302 429 b 130 429 219 429 174 429 b 130 722 130 527 130 624 b 130 906 130 783 130 845 b 355 906 205 906 280 906 b 355 966 394 906 394 966 b 100 966 270 966 185 966 b 71 932 78 966 69 948 b 69 923 70 929 69 926 b 69 213 69 686 69 450 b 69 13 69 146 69 80 b 71 4 69 9 70 6 b 100 -30 69 -12 79 -30 z "},"F":{"ha":454,"x_min":0,"x_max":0,"o":"m 130 906 b 355 906 205 906 280 906 b 355 966 394 906 394 966 b 100 966 270 966 185 966 b 71 932 78 966 69 948 b 69 923 70 929 69 926 b 69 206 69 684 69 445 b 69 1 69 138 69 70 b 130 1 69 -38 130 -38 b 130 369 130 124 130 246 b 263 369 174 369 219 369 b 263 429 302 369 302 429 b 130 429 219 429 174 429 b 130 718 130 525 130 621 b 130 906 130 780 130 843 z "},"G":{"ha":629,"x_min":0,"x_max":0,"o":"m 96 441 b 203 182 131 355 167 269 b 281 -7 229 119 255 56 b 336 -14 290 -29 323 -39 b 529 342 400 105 464 224 b 555 392 537 359 546 375 b 529 438 566 412 553 438 b 314 438 458 438 386 438 b 314 377 275 438 275 377 b 478 377 369 377 424 377 b 314 71 424 275 369 173 b 154 458 261 200 207 329 b 132 511 147 475 140 493 b 315 875 193 632 254 753 b 318 882 316 877 317 880 b 476 630 371 798 423 714 b 503 587 485 615 494 601 b 555 617 524 554 576 584 b 368 916 493 717 431 816 b 341 959 359 930 350 945 b 289 959 330 977 300 980 b 87 556 222 825 155 690 b 71 502 80 540 65 520 b 96 441 77 482 88 461 z "},"H":{"ha":556,"x_min":0,"x_max":0,"o":"m 426 369 b 426 218 426 318 426 268 b 426 13 426 149 426 81 b 486 13 426 -26 486 -26 b 486 736 486 254 486 495 b 486 941 486 804 486 873 b 426 941 486 980 426 980 b 426 429 426 770 426 600 b 130 429 327 429 228 429 b 130 736 130 531 130 634 b 130 941 130 804 130 873 b 69 941 130 980 69 980 b 69 218 69 700 69 459 b 69 13 69 149 69 81 b 130 13 69 -26 130 -26 b 130 369 130 131 130 250 b 426 369 228 369 327 369 z "},"I":{"ha":318,"x_min":0,"x_max":0,"o":"m 191 911 b 220 911 200 911 210 911 b 220 971 258 911 258 971 b 98 971 179 971 139 971 b 98 911 60 971 60 911 b 131 911 109 911 120 911 b 131 218 131 680 131 449 b 131 29 131 155 131 92 b 98 29 120 29 109 29 b 98 -31 60 29 60 -31 b 220 -31 139 -31 179 -31 b 220 29 258 -31 258 29 b 191 29 210 29 200 29 b 191 736 191 265 191 500 b 191 911 191 794 191 852 z "},"J":{"ha":599,"x_min":0,"x_max":0,"o":"m 523 444 b 529 489 530 459 529 473 b 529 735 529 571 529 653 b 529 944 529 804 529 874 b 499 974 529 960 515 974 b 148 974 382 974 265 974 b 99 974 132 974 116 974 b 99 913 60 974 60 913 b 450 913 216 913 333 913 b 468 913 456 913 462 913 b 468 521 468 783 468 652 b 468 469 468 504 468 486 b 283 72 407 337 345 204 b 148 373 238 173 193 273 b 125 424 141 390 133 407 b 84 435 119 439 97 442 b 73 393 69 426 66 408 b 234 35 127 274 180 155 b 257 -15 241 18 249 2 b 309 -15 266 -35 300 -35 b 494 381 371 117 433 249 b 523 444 504 402 514 423 z "},"K":{"ha":531,"x_min":0,"x_max":0,"o":"m 457 28 b 218 501 375 185 301 345 b 158 609 198 538 178 573 b 452 907 257 708 353 809 b 410 950 480 934 437 977 b 130 666 315 856 223 760 b 130 736 130 689 130 713 b 130 941 130 804 130 873 b 69 941 130 980 69 980 b 69 218 69 700 69 459 b 69 13 69 149 69 81 b 130 13 69 -26 130 -26 b 130 537 130 187 130 362 b 321 162 197 414 258 287 b 405 -3 349 107 377 52 b 457 28 423 -37 475 -7 z "},"L":{"ha":508,"x_min":0,"x_max":0,"o":"m 410 43 b 130 43 316 43 223 43 b 130 736 130 274 130 505 b 130 941 130 804 130 873 b 69 941 130 980 69 980 b 69 218 69 700 69 459 b 69 13 69 149 69 81 b 100 -16 69 -7 85 -17 b 108 -17 102 -17 105 -17 b 410 -17 209 -17 309 -17 b 410 43 449 -17 449 43 z "},"M":{"ha":688,"x_min":0,"x_max":0,"o":"m 618 13 b 618 736 618 254 618 495 b 618 941 618 804 618 873 b 567 962 618 966 585 982 b 444 828 526 917 485 873 b 427 795 434 817 430 808 b 417 735 424 775 420 755 b 344 325 392 598 368 462 b 314 493 334 381 324 437 b 275 714 301 567 288 641 b 262 785 270 738 266 761 b 250 821 260 798 259 810 b 121 962 209 870 164 915 b 69 941 103 982 69 966 b 69 218 69 700 69 459 b 69 13 69 149 69 81 b 130 13 69 -26 130 -26 b 130 736 130 254 130 495 b 130 864 130 779 130 821 b 201 785 153 838 177 812 b 239 573 214 714 226 644 b 301 226 259 457 280 341 b 315 146 305 199 310 173 b 324 131 316 140 320 134 b 344 124 329 126 336 124 b 363 131 352 124 358 126 b 373 146 368 134 372 140 b 412 365 386 219 399 292 b 473 711 432 480 453 596 b 487 785 478 736 482 761 b 558 864 510 812 534 838 b 558 218 558 648 558 433 b 558 13 558 149 558 81 b 618 13 558 -26 618 -26 z "},"N":{"ha":590,"x_min":0,"x_max":0,"o":"m 520 736 b 520 941 520 804 520 873 b 460 941 520 980 460 980 b 460 218 460 700 460 459 b 460 198 460 211 460 205 b 395 395 439 264 417 329 b 259 805 350 531 307 669 b 245 826 256 813 251 820 b 202 873 231 842 217 858 b 121 962 175 903 148 933 b 69 941 103 982 69 966 b 69 218 69 700 69 459 b 69 13 69 149 69 81 b 130 13 69 -26 130 -26 b 130 736 130 254 130 495 b 130 864 130 779 130 821 b 203 784 154 837 178 810 b 288 525 231 698 260 611 b 429 101 335 384 382 242 b 461 6 440 69 450 38 b 510 -10 466 -17 494 -22 b 520 16 518 -5 523 5 b 520 736 520 256 520 496 z "},"O":{"ha":632,"x_min":0,"x_max":0,"o":"m 406 942 b 244 955 358 979 297 986 b 123 790 184 919 148 853 b 70 512 88 702 74 606 b 103 215 66 412 76 311 b 368 -19 134 106 224 -80 b 496 125 429 6 469 67 b 559 395 534 210 552 302 b 562 473 561 421 562 447 b 519 761 562 570 550 669 b 406 942 496 828 463 898 z m 326 914 b 326 914 328 914 327 914 z m 464 212 b 371 52 446 153 419 91 b 347 37 367 49 356 41 b 345 36 346 37 345 36 b 343 36 345 36 344 36 b 335 33 341 35 338 34 b 327 31 333 32 330 32 b 325 31 326 31 326 31 b 324 31 325 31 325 31 b 307 31 319 30 313 30 b 306 31 307 31 306 31 b 304 31 306 31 305 31 b 296 33 302 32 299 32 b 269 46 286 36 281 38 b 219 99 252 57 232 79 b 175 189 201 127 186 157 b 131 436 147 268 134 352 b 159 705 128 526 135 617 b 244 877 175 766 200 831 b 296 912 260 894 278 907 b 304 914 299 913 302 913 b 306 914 305 914 306 914 b 307 914 306 914 307 914 b 324 914 313 915 319 915 b 325 914 324 914 325 914 b 333 913 327 914 330 913 b 347 908 339 911 345 909 b 455 761 400 882 434 818 b 501 473 489 669 501 570 b 464 212 501 384 491 296 z "},"P":{"ha":553,"x_min":0,"x_max":0,"o":"m 166 921 b 122 966 151 936 136 951 b 77 964 107 982 88 976 b 71 949 74 960 72 955 b 70 947 70 949 70 948 b 70 947 70 947 70 947 b 70 943 70 946 70 944 b 70 254 70 713 70 484 b 70 243 69 250 69 246 b 70 220 70 235 70 228 b 70 13 70 151 70 82 b 130 13 70 -26 130 -26 b 130 234 130 86 130 160 b 430 519 230 329 330 424 b 474 560 445 532 460 546 b 474 603 486 572 485 592 b 166 921 371 709 269 815 z m 130 736 b 130 871 130 781 130 826 b 387 606 216 782 302 694 b 410 583 395 598 402 590 b 130 317 317 494 223 406 b 130 736 130 457 130 596 z "},"Q":{"ha":632,"x_min":0,"x_max":0,"o":"m 277 970 b 140 848 216 954 170 902 b 73 617 101 777 81 697 b 98 339 64 525 71 428 b 145 228 109 301 124 263 b 191 205 157 207 171 205 b 289 205 224 205 256 205 b 289 52 289 154 289 103 b 210 52 262 52 236 52 b 210 -8 171 52 171 -8 b 432 -8 284 -8 358 -8 b 432 52 471 -8 471 52 b 349 52 404 52 376 52 b 349 205 349 103 349 154 b 456 205 385 205 420 205 b 478 215 466 205 473 209 b 482 220 480 217 481 218 b 558 463 527 293 549 379 b 537 736 568 554 561 648 b 277 970 506 847 418 1008 z m 439 266 b 193 266 357 266 275 266 b 131 583 140 361 126 476 b 225 865 137 679 160 790 b 265 899 238 879 250 890 b 276 906 268 902 272 904 b 282 908 280 908 277 906 b 294 912 286 910 290 911 b 304 914 296 912 305 914 b 386 886 335 918 362 906 b 497 628 457 824 486 718 b 439 266 511 508 499 374 z "},"R":{"ha":553,"x_min":0,"x_max":0,"o":"m 474 560 b 474 603 486 572 485 592 b 166 921 371 709 269 815 b 122 966 151 936 136 951 b 77 964 107 982 88 976 b 71 949 74 960 72 955 b 70 947 70 949 70 948 b 70 947 70 947 70 947 b 70 943 70 946 70 944 b 70 254 70 713 70 484 b 70 243 69 250 69 246 b 70 220 70 235 70 228 b 70 13 70 151 70 82 b 130 13 70 -26 130 -26 b 130 183 130 69 130 126 b 436 -4 232 121 334 58 b 466 48 469 -24 499 28 b 143 246 358 114 251 180 b 430 519 239 337 334 428 b 474 560 445 532 460 546 z m 387 606 b 410 583 395 598 402 590 b 130 317 317 494 223 406 b 130 736 130 457 130 596 b 130 871 130 781 130 826 b 387 606 216 782 302 694 z "},"S":{"ha":564,"x_min":0,"x_max":0,"o":"m 297 -21 b 398 5 325 -44 374 -12 b 466 83 426 26 450 52 b 494 179 483 112 492 145 b 478 263 496 205 495 242 b 440 306 465 278 453 292 b 268 504 383 372 325 438 b 143 649 226 553 184 601 b 159 832 124 709 125 777 b 293 913 188 878 238 909 b 443 765 343 864 393 814 b 486 807 471 737 513 780 b 339 952 437 855 388 903 b 304 974 329 962 320 973 b 198 947 268 976 229 964 b 75 773 132 912 87 846 b 79 653 68 733 70 692 b 98 609 83 637 87 621 b 144 556 113 591 129 574 b 314 360 200 491 257 425 b 429 227 352 316 391 271 b 326 34 450 148 401 63 b 149 192 267 87 208 140 b 122 217 140 200 131 209 b 79 174 93 242 50 200 b 240 30 133 126 186 78 b 297 -21 259 13 278 -5 z "},"T":{"ha":728,"x_min":0,"x_max":0,"o":"m 98 915 b 331 915 176 915 254 915 b 331 210 331 680 331 445 b 331 9 331 143 331 76 b 391 9 331 -30 391 -30 b 391 721 391 246 391 484 b 391 915 391 786 391 850 b 630 915 471 915 550 915 b 630 975 668 915 668 975 b 98 975 453 975 276 975 b 98 915 60 975 60 915 z "},"U":{"ha":683,"x_min":0,"x_max":0,"o":"m 80 585 b 88 485 82 552 85 518 b 94 439 90 470 92 454 b 102 393 95 424 95 407 b 247 104 147 295 199 200 b 307 -15 267 64 287 25 b 360 -15 317 -35 349 -35 b 511 268 410 79 461 174 b 576 390 533 309 555 349 b 585 429 582 402 583 415 b 596 531 589 463 593 497 b 609 718 602 593 606 656 b 613 944 613 793 615 869 b 552 944 612 983 552 983 b 550 765 554 884 552 824 b 540 585 548 705 545 645 b 531 488 538 553 535 520 b 525 439 529 472 527 455 b 524 429 525 436 524 432 b 524 423 524 429 524 420 b 525 423 524 423 525 424 b 506 388 522 411 512 399 b 467 315 493 364 480 340 b 369 132 435 254 402 193 b 334 66 358 110 346 88 b 218 296 296 143 257 219 b 179 375 205 322 192 349 b 156 420 171 390 162 404 b 156 420 156 420 156 420 b 155 430 156 421 155 429 b 153 445 155 435 154 440 b 143 543 149 478 146 510 b 133 726 138 604 135 665 b 131 944 130 799 129 871 b 70 944 132 983 71 983 b 71 762 69 883 69 823 b 80 585 73 703 75 644 z m 155 422 b 155 421 155 421 155 421 b 154 423 155 421 155 422 b 155 422 154 425 155 422 z "},"V":{"ha":678,"x_min":0,"x_max":0,"o":"m 549 936 b 465 623 521 832 493 727 b 333 123 421 456 377 289 b 333 122 333 122 333 122 b 282 323 316 189 299 256 b 158 821 241 489 199 655 b 129 936 148 860 139 898 b 70 920 119 974 61 958 b 149 605 97 815 123 710 b 274 107 191 439 232 273 b 303 -8 283 69 293 30 b 361 -8 310 -37 353 -37 b 444 306 389 97 416 201 b 577 806 488 472 532 639 b 607 920 587 844 597 882 b 549 936 617 958 559 974 z "},"W":{"ha":688,"x_min":0,"x_max":0,"o":"m 558 941 b 558 218 558 700 558 459 b 558 90 558 175 558 133 b 487 168 534 116 510 142 b 449 381 474 239 461 310 b 387 728 428 497 408 612 b 373 808 382 755 378 781 b 361 825 372 815 367 821 b 352 829 358 827 355 828 b 345 830 350 830 347 830 b 344 830 344 830 344 830 b 343 830 344 830 343 830 b 336 829 341 830 338 830 b 326 825 332 828 329 826 b 315 808 321 821 316 815 b 276 589 302 735 289 662 b 214 242 255 474 235 358 b 201 168 210 218 205 193 b 130 90 177 142 153 116 b 130 736 130 305 130 521 b 130 941 130 804 130 873 b 69 941 130 980 69 980 b 69 218 69 700 69 459 b 69 13 69 149 69 81 b 121 -9 69 -13 103 -28 b 244 126 162 36 203 81 b 260 159 253 136 258 145 b 271 219 264 179 267 199 b 344 629 295 355 320 492 b 374 461 354 573 364 517 b 413 239 387 387 400 313 b 426 169 417 216 421 193 b 438 133 428 156 428 144 b 567 -9 479 84 524 38 b 618 13 585 -28 618 -13 b 618 736 618 254 618 495 b 618 941 618 804 618 873 b 558 941 618 980 558 980 z "},"X":{"ha":644,"x_min":0,"x_max":0,"o":"m 352 562 b 570 920 425 681 498 801 b 519 950 591 953 539 983 b 400 757 479 886 440 821 b 341 660 381 724 361 692 b 322 628 335 649 329 639 b 260 731 301 663 281 697 b 126 950 215 804 171 877 b 74 920 106 983 54 953 b 292 563 147 801 219 682 b 292 491 291 539 292 515 b 292 416 292 466 291 441 b 102 66 229 299 165 183 b 74 15 93 49 83 32 b 126 -15 56 -19 107 -49 b 287 280 180 83 233 182 b 323 345 298 302 311 323 b 345 304 330 331 338 317 b 450 111 380 239 415 175 b 519 -15 473 69 496 27 b 570 15 537 -49 589 -19 b 376 372 506 134 441 253 b 353 414 368 386 361 400 b 352 462 355 430 352 448 b 352 561 352 495 352 528 b 352 562 352 561 352 562 z "},"Y":{"ha":614,"x_min":0,"x_max":0,"o":"m 486 956 b 379 424 446 780 413 602 b 307 388 355 412 331 400 b 235 424 283 400 259 412 b 128 956 201 602 168 780 b 70 940 120 994 62 978 b 135 631 93 838 115 735 b 162 490 144 584 153 537 b 178 402 167 461 171 431 b 210 370 183 383 194 378 b 277 336 232 359 255 348 b 277 9 277 227 277 118 b 337 9 277 -30 337 -30 b 337 336 337 118 337 227 b 394 365 356 346 375 356 b 421 378 403 369 413 373 b 440 423 436 388 437 407 b 449 470 443 439 446 454 b 502 746 466 562 483 654 b 544 940 515 811 529 876 b 486 956 552 978 494 994 z "},"Z":{"ha":539,"x_min":0,"x_max":0,"o":"m 438 974 b 143 974 340 974 241 974 b 100 974 128 974 114 974 b 100 914 61 974 61 914 b 395 914 198 914 297 914 b 146 230 312 686 229 458 b 71 26 121 162 96 94 b 100 -12 64 7 82 -12 b 396 -12 199 -12 297 -12 b 438 -12 410 -12 424 -12 b 438 48 477 -12 477 48 b 143 48 340 48 241 48 b 393 731 226 276 309 503 b 467 936 417 799 442 867 b 438 974 474 954 457 974 z "},"[":{"ha":349,"x_min":0,"x_max":0,"o":"m 251 38 b 130 38 210 38 170 38 b 130 316 130 131 130 223 b 130 809 130 481 130 645 b 130 892 130 837 130 865 b 251 892 170 892 210 892 b 251 952 289 892 289 952 b 100 952 200 952 150 952 b 69 922 83 952 69 938 b 69 614 69 819 69 717 b 69 121 69 449 69 285 b 69 8 69 83 69 45 b 100 -22 69 -8 83 -22 b 251 -22 150 -22 200 -22 b 251 38 289 -22 289 38 z "},"\\":{"ha":588,"x_min":0,"x_max":0,"o":"m 517 -5 b 215 715 416 235 316 475 b 129 920 186 783 158 852 b 92 941 123 935 109 946 b 71 904 78 937 65 919 b 373 184 172 664 272 424 b 459 -21 402 115 430 47 b 496 -42 465 -36 479 -47 b 517 -5 510 -38 523 -20 z "},"]":{"ha":349,"x_min":0,"x_max":0,"o":"m 249 952 b 98 952 199 952 149 952 b 98 892 60 952 60 892 b 219 892 139 892 179 892 b 219 614 219 799 219 707 b 219 121 219 449 219 285 b 219 38 219 93 219 65 b 98 38 179 38 139 38 b 98 -22 60 38 60 -22 b 249 -22 149 -22 199 -22 b 280 8 266 -22 280 -8 b 280 316 280 111 280 213 b 280 809 280 481 280 645 b 280 922 280 847 280 885 b 249 952 280 938 266 952 z "},"^":{"ha":374,"x_min":0,"x_max":0,"o":"m 303 698 b 208 934 271 777 240 856 b 149 934 197 962 159 965 b 71 698 123 856 97 777 b 130 682 59 661 117 645 b 181 839 147 734 164 786 b 244 682 202 786 223 734 b 282 661 251 667 265 656 b 303 698 296 665 309 683 z "},"_":{"ha":519,"x_min":0,"x_max":0,"o":"m 421 5 b 98 5 314 5 206 5 b 98 -55 60 5 60 -55 b 421 -55 206 -55 314 -55 b 421 5 460 -55 460 5 z "},"`":{"ha":310,"x_min":0,"x_max":0,"o":"m 232 815 b 120 936 195 855 157 895 b 78 893 94 964 51 922 b 189 772 115 853 152 812 b 232 815 215 744 258 786 z "},"a":{"ha":531,"x_min":0,"x_max":0,"o":"m 333 744 b 297 952 321 813 309 882 b 260 973 294 968 274 977 b 238 938 243 968 236 953 b 107 218 195 698 151 458 b 70 14 95 150 82 82 b 91 -23 67 -2 74 -19 b 128 -2 106 -27 125 -19 b 196 369 151 121 173 245 b 337 369 243 369 290 369 b 366 200 347 312 357 256 b 403 -8 378 131 391 61 b 440 -29 405 -24 425 -33 b 461 8 456 -24 463 -8 b 333 744 418 253 375 499 z m 207 429 b 260 724 224 527 242 625 b 268 767 263 738 265 752 b 327 429 288 654 307 541 b 207 429 287 429 247 429 z "},"b":{"ha":471,"x_min":0,"x_max":0,"o":"m 70 501 b 70 209 70 404 70 307 b 70 1 70 140 70 71 b 79 -20 70 -8 74 -16 b 121 -21 90 -32 108 -36 b 360 233 201 63 280 148 b 393 269 371 245 382 257 b 393 312 403 280 406 301 b 155 503 314 375 235 439 b 149 508 153 504 151 506 b 353 660 217 559 285 610 b 387 686 364 669 376 677 b 393 733 401 696 409 719 b 155 935 314 800 234 868 b 121 963 144 944 133 954 b 79 963 109 974 91 975 b 76 960 77 962 77 961 b 75 959 75 959 75 959 b 75 959 75 959 75 959 b 70 945 72 955 71 951 b 70 938 70 943 70 940 b 70 511 70 796 70 653 b 70 501 69 508 69 504 z m 316 296 b 327 287 320 293 324 290 b 130 76 262 217 196 147 b 130 446 130 200 130 323 b 316 296 192 396 254 346 z m 316 719 b 323 713 319 717 321 715 b 130 569 259 665 194 617 b 130 733 130 624 130 679 b 130 877 130 781 130 829 b 316 719 192 824 254 772 z "},"c":{"ha":540,"x_min":0,"x_max":0,"o":"m 353 -16 b 387 -3 366 -19 381 -15 b 467 149 414 48 440 98 b 415 179 485 183 433 214 b 346 47 392 135 369 91 b 208 129 291 62 245 86 b 198 143 203 135 203 135 b 184 164 193 150 188 157 b 165 205 176 179 170 191 b 138 319 152 241 143 280 b 140 627 125 420 125 527 b 219 850 151 704 171 786 b 224 856 219 850 223 855 b 232 865 227 859 230 862 b 250 882 238 871 244 876 b 254 885 251 883 253 884 b 255 886 254 885 255 886 b 264 892 258 888 261 890 b 282 901 270 895 276 899 b 282 902 282 901 282 902 b 287 903 284 902 285 903 b 296 906 290 904 293 905 b 306 908 299 907 302 908 b 310 909 307 909 308 909 b 310 909 310 909 310 909 b 329 910 317 910 323 910 b 334 909 330 910 332 909 b 404 786 357 868 381 827 b 456 817 423 753 475 783 b 410 897 440 844 425 870 b 384 944 401 913 392 928 b 379 951 382 946 381 949 b 340 969 370 966 355 967 b 153 859 260 978 193 924 b 70 504 89 755 73 623 b 121 156 67 388 72 263 b 353 -16 165 60 253 6 z m 283 902 b 283 902 285 903 284 903 z "},"d":{"ha":517,"x_min":0,"x_max":0,"o":"m 129 -5 b 131 -3 130 -4 130 -3 b 394 341 217 113 308 225 b 447 431 414 368 441 396 b 410 533 453 470 431 502 b 280 727 366 598 323 662 b 131 949 230 801 181 875 b 127 953 130 951 129 952 b 69 942 117 980 69 976 b 69 209 69 698 69 454 b 69 1 69 140 69 71 b 129 -5 69 -35 123 -37 z m 330 544 b 360 500 340 529 350 514 b 385 458 369 486 380 473 b 348 379 396 430 363 399 b 224 216 308 324 266 270 b 130 94 192 176 161 135 b 130 734 130 307 130 520 b 130 843 130 770 130 807 b 330 544 196 743 263 644 z "},"e":{"ha":454,"x_min":0,"x_max":0,"o":"m 100 -30 b 355 -30 185 -30 270 -30 b 355 30 394 -30 394 30 b 130 30 280 30 205 30 b 130 369 130 143 130 256 b 263 369 174 369 219 369 b 263 429 302 369 302 429 b 130 429 219 429 174 429 b 130 722 130 527 130 624 b 130 906 130 783 130 845 b 355 906 205 906 280 906 b 355 966 394 906 394 966 b 100 966 270 966 185 966 b 71 932 78 966 69 948 b 69 923 70 929 69 926 b 69 213 69 686 69 450 b 69 13 69 146 69 80 b 71 4 69 9 70 6 b 100 -30 69 -12 79 -30 z "},"f":{"ha":454,"x_min":0,"x_max":0,"o":"m 130 906 b 355 906 205 906 280 906 b 355 966 394 906 394 966 b 100 966 270 966 185 966 b 71 932 78 966 69 948 b 69 923 70 929 69 926 b 69 206 69 684 69 445 b 69 1 69 138 69 70 b 130 1 69 -38 130 -38 b 130 369 130 124 130 246 b 263 369 174 369 219 369 b 263 429 302 369 302 429 b 130 429 219 429 174 429 b 130 718 130 525 130 621 b 130 906 130 780 130 843 z "},"g":{"ha":629,"x_min":0,"x_max":0,"o":"m 96 441 b 203 182 131 355 167 269 b 281 -7 229 119 255 56 b 336 -14 290 -29 323 -39 b 529 342 400 105 464 224 b 555 392 537 359 546 375 b 529 438 566 412 553 438 b 314 438 458 438 386 438 b 314 377 275 438 275 377 b 478 377 369 377 424 377 b 314 71 424 275 369 173 b 154 458 261 200 207 329 b 132 511 147 475 140 493 b 315 875 193 632 254 753 b 318 882 316 877 317 880 b 476 630 371 798 423 714 b 503 587 485 615 494 601 b 555 617 524 554 576 584 b 368 916 493 717 431 816 b 341 959 359 930 350 945 b 289 959 330 977 300 980 b 87 556 222 825 155 690 b 71 502 80 540 65 520 b 96 441 77 482 88 461 z "},"h":{"ha":556,"x_min":0,"x_max":0,"o":"m 426 369 b 426 218 426 318 426 268 b 426 13 426 149 426 81 b 486 13 426 -26 486 -26 b 486 736 486 254 486 495 b 486 941 486 804 486 873 b 426 941 486 980 426 980 b 426 429 426 770 426 600 b 130 429 327 429 228 429 b 130 736 130 531 130 634 b 130 941 130 804 130 873 b 69 941 130 980 69 980 b 69 218 69 700 69 459 b 69 13 69 149 69 81 b 130 13 69 -26 130 -26 b 130 369 130 131 130 250 b 426 369 228 369 327 369 z "},"i":{"ha":318,"x_min":0,"x_max":0,"o":"m 191 911 b 220 911 200 911 210 911 b 220 971 258 911 258 971 b 98 971 179 971 139 971 b 98 911 60 971 60 911 b 131 911 109 911 120 911 b 131 218 131 680 131 449 b 131 29 131 155 131 92 b 98 29 120 29 109 29 b 98 -31 60 29 60 -31 b 220 -31 139 -31 179 -31 b 220 29 258 -31 258 29 b 191 29 210 29 200 29 b 191 736 191 265 191 500 b 191 911 191 794 191 852 z "},"j":{"ha":599,"x_min":0,"x_max":0,"o":"m 523 444 b 529 489 530 459 529 473 b 529 735 529 571 529 653 b 529 944 529 804 529 874 b 499 974 529 960 515 974 b 148 974 382 974 265 974 b 99 974 132 974 116 974 b 99 913 60 974 60 913 b 450 913 216 913 333 913 b 468 913 456 913 462 913 b 468 521 468 783 468 652 b 468 469 468 504 468 486 b 283 72 407 337 345 204 b 148 373 238 173 193 273 b 125 424 141 390 133 407 b 84 435 119 439 97 442 b 73 393 69 426 66 408 b 234 35 127 274 180 155 b 257 -15 241 18 249 2 b 309 -15 266 -35 300 -35 b 494 381 371 117 433 249 b 523 444 504 402 514 423 z "},"k":{"ha":531,"x_min":0,"x_max":0,"o":"m 457 28 b 218 501 375 185 301 345 b 158 609 198 538 178 573 b 452 907 257 708 353 809 b 410 950 480 934 437 977 b 130 666 315 856 223 760 b 130 736 130 689 130 713 b 130 941 130 804 130 873 b 69 941 130 980 69 980 b 69 218 69 700 69 459 b 69 13 69 149 69 81 b 130 13 69 -26 130 -26 b 130 537 130 187 130 362 b 321 162 197 414 258 287 b 405 -3 349 107 377 52 b 457 28 423 -37 475 -7 z "},"l":{"ha":508,"x_min":0,"x_max":0,"o":"m 410 43 b 130 43 316 43 223 43 b 130 736 130 274 130 505 b 130 941 130 804 130 873 b 69 941 130 980 69 980 b 69 218 69 700 69 459 b 69 13 69 149 69 81 b 100 -16 69 -7 85 -17 b 108 -17 102 -17 105 -17 b 410 -17 209 -17 309 -17 b 410 43 449 -17 449 43 z "},"m":{"ha":688,"x_min":0,"x_max":0,"o":"m 618 13 b 618 736 618 254 618 495 b 618 941 618 804 618 873 b 567 962 618 966 585 982 b 444 828 526 917 485 873 b 427 795 434 817 430 808 b 417 735 424 775 420 755 b 344 325 392 598 368 462 b 314 493 334 381 324 437 b 275 714 301 567 288 641 b 262 785 270 738 266 761 b 250 821 260 798 259 810 b 121 962 209 870 164 915 b 69 941 103 982 69 966 b 69 218 69 700 69 459 b 69 13 69 149 69 81 b 130 13 69 -26 130 -26 b 130 736 130 254 130 495 b 130 864 130 779 130 821 b 201 785 153 838 177 812 b 239 573 214 714 226 644 b 301 226 259 457 280 341 b 315 146 305 199 310 173 b 324 131 316 140 320 134 b 344 124 329 126 336 124 b 363 131 352 124 358 126 b 373 146 368 134 372 140 b 412 365 386 219 399 292 b 473 711 432 480 453 596 b 487 785 478 736 482 761 b 558 864 510 812 534 838 b 558 218 558 648 558 433 b 558 13 558 149 558 81 b 618 13 558 -26 618 -26 z "},"n":{"ha":590,"x_min":0,"x_max":0,"o":"m 520 736 b 520 941 520 804 520 873 b 460 941 520 980 460 980 b 460 218 460 700 460 459 b 460 198 460 211 460 205 b 395 395 439 264 417 329 b 259 805 350 531 307 669 b 245 826 256 813 251 820 b 202 873 231 842 217 858 b 121 962 175 903 148 933 b 69 941 103 982 69 966 b 69 218 69 700 69 459 b 69 13 69 149 69 81 b 130 13 69 -26 130 -26 b 130 736 130 254 130 495 b 130 864 130 779 130 821 b 203 784 154 837 178 810 b 288 525 231 698 260 611 b 429 101 335 384 382 242 b 461 6 440 69 450 38 b 510 -10 466 -17 494 -22 b 520 16 518 -5 523 5 b 520 736 520 256 520 496 z "},"o":{"ha":632,"x_min":0,"x_max":0,"o":"m 406 942 b 244 955 358 979 297 986 b 123 790 184 919 148 853 b 70 512 88 702 74 606 b 103 215 66 412 76 311 b 368 -19 134 106 224 -80 b 496 125 429 6 469 67 b 559 395 534 210 552 302 b 562 473 561 421 562 447 b 519 761 562 570 550 669 b 406 942 496 828 463 898 z m 326 914 b 326 914 328 914 327 914 z m 464 212 b 371 52 446 153 419 91 b 347 37 367 49 356 41 b 345 36 346 37 345 36 b 343 36 345 36 344 36 b 335 33 341 35 338 34 b 327 31 333 32 330 32 b 325 31 326 31 326 31 b 324 31 325 31 325 31 b 307 31 319 30 313 30 b 306 31 307 31 306 31 b 304 31 306 31 305 31 b 296 33 302 32 299 32 b 269 46 286 36 281 38 b 219 99 252 57 232 79 b 175 189 201 127 186 157 b 131 436 147 268 134 352 b 159 705 128 526 135 617 b 244 877 175 766 200 831 b 296 912 260 894 278 907 b 304 914 299 913 302 913 b 306 914 305 914 306 914 b 307 914 306 914 307 914 b 324 914 313 915 319 915 b 325 914 324 914 325 914 b 333 913 327 914 330 913 b 347 908 339 911 345 909 b 455 761 400 882 434 818 b 501 473 489 669 501 570 b 464 212 501 384 491 296 z "},"p":{"ha":553,"x_min":0,"x_max":0,"o":"m 166 921 b 122 966 151 936 136 951 b 77 964 107 982 88 976 b 71 949 74 960 72 955 b 70 947 70 949 70 948 b 70 947 70 947 70 947 b 70 943 70 946 70 944 b 70 254 70 713 70 484 b 70 243 69 250 69 246 b 70 220 70 235 70 228 b 70 13 70 151 70 82 b 130 13 70 -26 130 -26 b 130 234 130 86 130 160 b 430 519 230 329 330 424 b 474 560 445 532 460 546 b 474 603 486 572 485 592 b 166 921 371 709 269 815 z m 130 736 b 130 871 130 781 130 826 b 387 606 216 782 302 694 b 410 583 395 598 402 590 b 130 317 317 494 223 406 b 130 736 130 457 130 596 z "},"q":{"ha":632,"x_min":0,"x_max":0,"o":"m 277 970 b 140 848 216 954 170 902 b 73 617 101 777 81 697 b 98 339 64 525 71 428 b 145 228 109 301 124 263 b 191 205 157 207 171 205 b 289 205 224 205 256 205 b 289 52 289 154 289 103 b 210 52 262 52 236 52 b 210 -8 171 52 171 -8 b 432 -8 284 -8 358 -8 b 432 52 471 -8 471 52 b 349 52 404 52 376 52 b 349 205 349 103 349 154 b 456 205 385 205 420 205 b 478 215 466 205 473 209 b 482 220 480 217 481 218 b 558 463 527 293 549 379 b 537 736 568 554 561 648 b 277 970 506 847 418 1008 z m 439 266 b 193 266 357 266 275 266 b 131 583 140 361 126 476 b 225 865 137 679 160 790 b 265 899 238 879 250 890 b 276 906 268 902 272 904 b 282 908 280 908 277 906 b 294 912 286 910 290 911 b 304 914 296 912 305 914 b 386 886 335 918 362 906 b 497 628 457 824 486 718 b 439 266 511 508 499 374 z "},"r":{"ha":553,"x_min":0,"x_max":0,"o":"m 474 560 b 474 603 486 572 485 592 b 166 921 371 709 269 815 b 122 966 151 936 136 951 b 77 964 107 982 88 976 b 71 949 74 960 72 955 b 70 947 70 949 70 948 b 70 947 70 947 70 947 b 70 943 70 946 70 944 b 70 254 70 713 70 484 b 70 243 69 250 69 246 b 70 220 70 235 70 228 b 70 13 70 151 70 82 b 130 13 70 -26 130 -26 b 130 183 130 69 130 126 b 436 -4 232 121 334 58 b 466 48 469 -24 499 28 b 143 246 358 114 251 180 b 430 519 239 337 334 428 b 474 560 445 532 460 546 z m 387 606 b 410 583 395 598 402 590 b 130 317 317 494 223 406 b 130 736 130 457 130 596 b 130 871 130 781 130 826 b 387 606 216 782 302 694 z "},"s":{"ha":564,"x_min":0,"x_max":0,"o":"m 297 -21 b 398 5 325 -44 374 -12 b 466 83 426 26 450 52 b 494 179 483 112 492 145 b 478 263 496 205 495 242 b 440 306 465 278 453 292 b 268 504 383 372 325 438 b 143 649 226 553 184 601 b 159 832 124 709 125 777 b 293 913 188 878 238 909 b 443 765 343 864 393 814 b 486 807 471 737 513 780 b 339 952 437 855 388 903 b 304 974 329 962 320 973 b 198 947 268 976 229 964 b 75 773 132 912 87 846 b 79 653 68 733 70 692 b 98 609 83 637 87 621 b 144 556 113 591 129 574 b 314 360 200 491 257 425 b 429 227 352 316 391 271 b 326 34 450 148 401 63 b 149 192 267 87 208 140 b 122 217 140 200 131 209 b 79 174 93 242 50 200 b 240 30 133 126 186 78 b 297 -21 259 13 278 -5 z "},"t":{"ha":728,"x_min":0,"x_max":0,"o":"m 98 915 b 331 915 176 915 254 915 b 331 210 331 680 331 445 b 331 9 331 143 331 76 b 391 9 331 -30 391 -30 b 391 721 391 246 391 484 b 391 915 391 786 391 850 b 630 915 471 915 550 915 b 630 975 668 915 668 975 b 98 975 453 975 276 975 b 98 915 60 975 60 915 z "},"u":{"ha":683,"x_min":0,"x_max":0,"o":"m 80 585 b 88 485 82 552 85 518 b 94 439 90 470 92 454 b 102 393 95 424 95 407 b 247 104 147 295 199 200 b 307 -15 267 64 287 25 b 360 -15 317 -35 349 -35 b 511 268 410 79 461 174 b 576 390 533 309 555 349 b 585 429 582 402 583 415 b 596 531 589 463 593 497 b 609 718 602 593 606 656 b 613 944 613 793 615 869 b 552 944 612 983 552 983 b 550 765 554 884 552 824 b 540 585 548 705 545 645 b 531 488 538 553 535 520 b 525 439 529 472 527 455 b 524 429 525 436 524 432 b 524 423 524 429 524 420 b 525 423 524 423 525 424 b 506 388 522 411 512 399 b 467 315 493 364 480 340 b 369 132 435 254 402 193 b 334 66 358 110 346 88 b 218 296 296 143 257 219 b 179 375 205 322 192 349 b 156 420 171 390 162 404 b 156 420 156 420 156 420 b 155 430 156 421 155 429 b 153 445 155 435 154 440 b 143 543 149 478 146 510 b 133 726 138 604 135 665 b 131 944 130 799 129 871 b 70 944 132 983 71 983 b 71 762 69 883 69 823 b 80 585 73 703 75 644 z m 155 422 b 155 421 155 421 155 421 b 154 423 155 421 155 422 b 155 422 154 425 155 422 z "},"v":{"ha":678,"x_min":0,"x_max":0,"o":"m 549 936 b 465 623 521 832 493 727 b 333 123 421 456 377 289 b 333 122 333 122 333 122 b 282 323 316 189 299 256 b 158 821 241 489 199 655 b 129 936 148 860 139 898 b 70 920 119 974 61 958 b 149 605 97 815 123 710 b 274 107 191 439 232 273 b 303 -8 283 69 293 30 b 361 -8 310 -37 353 -37 b 444 306 389 97 416 201 b 577 806 488 472 532 639 b 607 920 587 844 597 882 b 549 936 617 958 559 974 z "},"w":{"ha":688,"x_min":0,"x_max":0,"o":"m 558 941 b 558 218 558 700 558 459 b 558 90 558 175 558 133 b 487 168 534 116 510 142 b 449 381 474 239 461 310 b 387 728 428 497 408 612 b 373 808 382 755 378 781 b 361 825 372 815 367 821 b 352 829 358 827 355 828 b 345 830 350 830 347 830 b 344 830 344 830 344 830 b 343 830 344 830 343 830 b 336 829 341 830 338 830 b 326 825 332 828 329 826 b 315 808 321 821 316 815 b 276 589 302 735 289 662 b 214 242 255 474 235 358 b 201 168 210 218 205 193 b 130 90 177 142 153 116 b 130 736 130 305 130 521 b 130 941 130 804 130 873 b 69 941 130 980 69 980 b 69 218 69 700 69 459 b 69 13 69 149 69 81 b 121 -9 69 -13 103 -28 b 244 126 162 36 203 81 b 260 159 253 136 258 145 b 271 219 264 179 267 199 b 344 629 295 355 320 492 b 374 461 354 573 364 517 b 413 239 387 387 400 313 b 426 169 417 216 421 193 b 438 133 428 156 428 144 b 567 -9 479 84 524 38 b 618 13 585 -28 618 -13 b 618 736 618 254 618 495 b 618 941 618 804 618 873 b 558 941 618 980 558 980 z "},"x":{"ha":644,"x_min":0,"x_max":0,"o":"m 352 562 b 570 920 425 681 498 801 b 519 950 591 953 539 983 b 400 757 479 886 440 821 b 341 660 381 724 361 692 b 322 628 335 649 329 639 b 260 731 301 663 281 697 b 126 950 215 804 171 877 b 74 920 106 983 54 953 b 292 563 147 801 219 682 b 292 491 291 539 292 515 b 292 416 292 466 291 441 b 102 66 229 299 165 183 b 74 15 93 49 83 32 b 126 -15 56 -19 107 -49 b 287 280 180 83 233 182 b 323 345 298 302 311 323 b 345 304 330 331 338 317 b 450 111 380 239 415 175 b 519 -15 473 69 496 27 b 570 15 537 -49 589 -19 b 376 372 506 134 441 253 b 353 414 368 386 361 400 b 352 462 355 430 352 448 b 352 561 352 495 352 528 b 352 562 352 561 352 562 z "},"y":{"ha":614,"x_min":0,"x_max":0,"o":"m 486 956 b 379 424 446 780 413 602 b 307 388 355 412 331 400 b 235 424 283 400 259 412 b 128 956 201 602 168 780 b 70 940 120 994 62 978 b 135 631 93 838 115 735 b 162 490 144 584 153 537 b 178 402 167 461 171 431 b 210 370 183 383 194 378 b 277 336 232 359 255 348 b 277 9 277 227 277 118 b 337 9 277 -30 337 -30 b 337 336 337 118 337 227 b 394 365 356 346 375 356 b 421 378 403 369 413 373 b 440 423 436 388 437 407 b 449 470 443 439 446 454 b 502 746 466 562 483 654 b 544 940 515 811 529 876 b 486 956 552 978 494 994 z "},"z":{"ha":539,"x_min":0,"x_max":0,"o":"m 438 974 b 143 974 340 974 241 974 b 100 974 128 974 114 974 b 100 914 61 974 61 914 b 395 914 198 914 297 914 b 146 230 312 686 229 458 b 71 26 121 162 96 94 b 100 -12 64 7 82 -12 b 396 -12 199 -12 297 -12 b 438 -12 410 -12 424 -12 b 438 48 477 -12 477 48 b 143 48 340 48 241 48 b 393 731 226 276 309 503 b 467 936 417 799 442 867 b 438 974 474 954 457 974 z "},"{":{"ha":481,"x_min":0,"x_max":0,"o":"m 215 710 b 272 762 234 727 253 744 b 286 774 277 766 282 770 b 305 813 296 785 300 800 b 389 896 323 853 343 889 b 410 933 406 898 414 919 b 373 954 406 950 390 956 b 241 815 300 943 267 877 b 135 719 206 783 170 751 b 82 671 118 703 99 688 b 70 623 68 657 70 641 b 70 456 70 568 69 512 b 70 451 70 455 70 453 b 97 417 71 433 84 427 b 140 366 116 404 129 386 b 184 211 167 319 176 264 b 369 -53 201 111 236 -57 b 369 8 408 -51 408 9 b 290 62 330 6 308 30 b 244 215 265 110 253 162 b 130 467 229 307 210 410 b 130 633 130 523 130 578 b 215 710 158 659 186 684 z "},"|":{"ha":200,"x_min":0,"x_max":0,"o":"m 130 693 b 130 911 130 766 130 838 b 69 911 130 950 69 950 b 71 150 70 657 70 404 b 71 -68 71 78 71 5 b 131 -68 71 -106 131 -106 b 130 693 131 186 130 440 z "},"}":{"ha":481,"x_min":0,"x_max":0,"o":"m 411 463 b 411 468 411 464 411 466 b 383 502 410 486 397 492 b 340 553 365 515 351 533 b 296 707 314 600 305 654 b 112 971 280 808 244 975 b 112 911 73 970 73 910 b 190 856 151 912 173 889 b 236 703 216 808 228 757 b 351 452 252 612 271 509 b 351 285 351 396 351 341 b 266 209 322 260 294 235 b 209 157 247 192 228 175 b 195 144 204 153 199 149 b 176 106 185 134 181 119 b 91 23 158 66 138 29 b 70 -14 75 21 66 0 b 107 -35 75 -31 91 -37 b 239 104 181 -25 214 42 b 346 200 275 136 310 168 b 398 248 363 216 382 231 b 411 295 413 261 411 278 b 411 463 411 351 412 407 z "},"~":{"ha":676,"x_min":0,"x_max":0,"o":"m 606 457 b 467 523 599 521 520 571 b 509 481 438 497 480 455 b 513 483 510 482 512 482 b 516 483 512 482 517 483 b 521 482 518 483 520 482 b 538 469 526 480 534 474 b 533 425 550 454 548 439 b 394 450 490 389 430 420 b 227 565 342 492 296 548 b 74 490 167 579 95 552 b 194 372 50 419 124 349 b 178 430 230 384 215 442 b 130 454 159 424 136 433 b 164 503 124 476 146 495 b 322 433 222 530 283 469 b 494 350 370 390 425 344 b 606 457 549 354 612 394 z "}," ":{"ha":286,"x_min":0,"x_max":0,"o":""},"¢":{"ha":532,"x_min":0,"x_max":0,"o":"m 453 251 b 411 251 441 263 424 261 b 316 204 383 229 351 211 b 294 202 309 203 302 202 b 276 204 289 204 282 205 b 252 211 268 206 256 209 b 159 326 207 233 177 279 b 130 504 136 384 126 442 b 206 705 134 575 156 652 b 280 746 226 726 254 743 b 373 711 314 749 346 734 b 415 711 385 701 403 699 b 415 754 426 722 428 743 b 312 804 385 779 351 798 b 312 926 312 845 312 885 b 252 926 312 964 252 965 b 252 803 252 885 252 844 b 252 802 252 803 252 802 b 200 778 234 797 216 789 b 76 560 128 730 90 642 b 94 327 63 482 69 402 b 212 164 116 264 152 199 b 252 148 225 157 239 151 b 252 35 252 110 252 73 b 312 35 252 -4 312 -4 b 312 144 312 71 312 108 b 453 208 363 150 412 176 b 453 251 466 218 464 240 z "},"£":{"ha":625,"x_min":0,"x_max":0,"o":"m 526 55 b 159 55 404 55 282 55 b 259 391 213 160 246 274 b 261 409 260 397 261 403 b 413 409 312 409 362 409 b 413 469 452 409 452 469 b 264 469 363 469 314 469 b 260 596 265 511 263 553 b 275 796 256 663 252 732 b 412 902 296 854 348 905 b 412 962 451 900 451 960 b 249 876 347 965 287 928 b 197 683 210 821 197 750 b 205 469 196 612 206 541 b 100 469 170 469 135 469 b 100 409 61 469 61 409 b 201 409 134 409 167 409 b 173 257 196 357 187 307 b 91 55 154 186 126 118 b 98 -5 60 47 62 -5 b 526 -5 241 -5 384 -5 b 526 55 565 -5 565 55 z "},"¥":{"ha":614,"x_min":0,"x_max":0,"o":"m 486 944 b 379 413 446 768 413 590 b 307 377 355 401 331 389 b 235 413 283 389 259 401 b 128 944 201 590 168 768 b 70 928 120 982 62 966 b 135 620 93 826 115 723 b 162 478 144 572 153 525 b 178 391 167 449 171 419 b 210 358 183 371 194 366 b 277 324 232 347 255 336 b 277 249 277 299 277 274 b 146 249 233 249 190 249 b 146 189 107 249 107 189 b 277 189 190 189 233 189 b 277 124 277 167 277 145 b 146 124 233 124 190 124 b 146 64 107 124 107 64 b 277 64 190 64 233 64 b 277 -3 277 41 277 19 b 337 -3 277 -42 337 -42 b 337 64 337 19 337 41 b 459 64 378 64 419 64 b 459 124 498 64 498 124 b 337 124 419 124 378 124 b 337 189 337 145 337 167 b 459 189 378 189 419 189 b 459 249 498 189 498 249 b 337 249 419 249 378 249 b 337 324 337 274 337 299 b 394 353 356 334 375 344 b 421 366 403 358 413 361 b 440 411 436 376 437 395 b 449 458 443 427 446 442 b 502 735 466 550 483 643 b 544 928 515 799 529 864 b 486 944 552 966 494 982 z "},"©":{"ha":797,"x_min":0,"x_max":0,"o":"m 398 737 b 69 408 217 737 69 590 b 398 79 69 227 217 79 b 727 408 580 79 727 227 b 398 737 727 590 580 737 z m 398 116 b 106 408 237 116 106 247 b 398 700 106 569 237 700 b 690 408 559 700 690 569 b 398 116 690 247 559 116 z m 443 271 b 415 217 434 253 424 235 b 349 267 387 226 363 240 b 328 393 329 305 328 352 b 356 536 328 441 332 494 b 410 575 367 556 385 577 b 439 524 419 558 429 541 b 464 539 448 507 474 523 b 444 576 458 552 451 564 b 419 604 437 588 433 601 b 337 563 385 610 355 589 b 298 414 307 520 300 464 b 318 261 296 364 297 308 b 419 185 337 219 375 195 b 436 192 425 184 432 186 b 469 256 447 213 458 235 b 443 271 478 273 452 288 z "},"­":{"ha":0,"x_min":0,"x_max":0,"o":""},"®":{"ha":797,"x_min":0,"x_max":0,"o":"m 398 737 b 69 408 217 737 69 590 b 398 79 69 227 217 79 b 727 408 580 79 727 227 b 398 737 727 590 580 737 z m 398 116 b 106 408 237 116 106 247 b 398 700 106 569 237 700 b 690 408 559 700 690 569 b 398 116 690 247 559 116 z m 510 460 b 369 606 463 509 416 558 b 347 605 361 614 352 611 b 343 598 345 603 344 601 b 343 594 343 597 343 595 b 343 319 343 502 343 411 b 343 313 342 317 342 315 b 343 221 343 283 343 252 b 373 221 343 202 373 202 b 373 284 373 242 373 263 b 491 212 412 260 452 236 b 506 238 508 202 523 228 b 380 315 464 264 422 290 b 510 439 423 357 467 398 b 510 460 516 445 516 455 z m 373 351 b 373 558 373 420 373 489 b 478 450 408 522 443 486 b 373 351 443 417 408 384 z "},"À":{"ha":531,"x_min":0,"x_max":0,"o":"m 308 1032 b 351 1074 334 1003 377 1046 b 239 1196 314 1115 276 1155 b 197 1153 213 1224 171 1181 b 308 1032 234 1113 271 1072 z m 461 8 b 333 744 418 253 375 499 b 297 952 321 813 309 882 b 260 973 294 968 274 977 b 238 938 243 968 236 953 b 107 218 195 698 151 458 b 70 14 95 150 82 82 b 91 -23 67 -2 74 -19 b 128 -2 106 -27 125 -19 b 196 369 151 121 173 245 b 337 369 243 369 290 369 b 366 200 347 312 357 256 b 403 -8 378 131 391 61 b 440 -29 405 -24 425 -33 b 461 8 456 -24 463 -8 z m 207 429 b 260 724 224 527 242 625 b 268 767 263 738 265 752 b 327 429 288 654 307 541 b 207 429 287 429 247 429 z "},"Á":{"ha":531,"x_min":0,"x_max":0,"o":"m 234 1032 b 345 1153 271 1072 308 1113 b 303 1196 372 1181 329 1224 b 191 1074 266 1155 229 1115 b 234 1032 165 1046 208 1003 z m 461 8 b 333 744 418 253 375 499 b 297 952 321 813 309 882 b 260 973 294 968 274 977 b 238 938 243 968 236 953 b 107 218 195 698 151 458 b 70 14 95 150 82 82 b 91 -23 67 -2 74 -19 b 128 -2 106 -27 125 -19 b 196 369 151 121 173 245 b 337 369 243 369 290 369 b 366 200 347 312 357 256 b 403 -8 378 131 391 61 b 440 -29 405 -24 425 -33 b 461 8 456 -24 463 -8 z m 207 429 b 260 724 224 527 242 625 b 268 767 263 738 265 752 b 327 429 288 654 307 541 b 207 429 287 429 247 429 z "},"Â":{"ha":531,"x_min":0,"x_max":0,"o":"m 461 8 b 333 744 418 253 375 499 b 297 952 321 813 309 882 b 260 973 294 968 274 977 b 238 938 243 968 236 953 b 107 218 195 698 151 458 b 70 14 95 150 82 82 b 91 -23 67 -2 74 -19 b 128 -2 106 -27 125 -19 b 196 369 151 121 173 245 b 337 369 243 369 290 369 b 366 200 347 312 357 256 b 403 -8 378 131 391 61 b 440 -29 405 -24 425 -33 b 461 8 456 -24 463 -8 z m 207 429 b 260 724 224 527 242 625 b 268 767 263 738 265 752 b 327 429 288 654 307 541 b 207 429 287 429 247 429 z m 155 1027 b 197 1038 170 1018 187 1024 b 255 1121 216 1065 236 1093 b 310 1038 274 1093 292 1065 b 363 1068 332 1005 384 1036 b 282 1190 336 1109 309 1149 b 230 1190 269 1209 243 1209 b 144 1068 201 1149 173 1109 b 155 1027 135 1055 142 1035 z "},"Ã":{"ha":531,"x_min":0,"x_max":0,"o":"m 461 8 b 333 744 418 253 375 499 b 297 952 321 813 309 882 b 260 973 294 968 274 977 b 238 938 243 968 236 953 b 107 218 195 698 151 458 b 70 14 95 150 82 82 b 91 -23 67 -2 74 -19 b 128 -2 106 -27 125 -19 b 196 369 151 121 173 245 b 337 369 243 369 290 369 b 366 200 347 312 357 256 b 403 -8 378 131 391 61 b 440 -29 405 -24 425 -33 b 461 8 456 -24 463 -8 z m 207 429 b 260 724 224 527 242 625 b 268 767 263 738 265 752 b 327 429 288 654 307 541 b 207 429 287 429 247 429 z m 176 1055 b 217 1066 191 1046 207 1053 b 251 1086 224 1076 237 1087 b 294 1064 266 1085 281 1071 b 389 1095 330 1047 373 1056 b 379 1136 396 1110 394 1127 b 337 1125 366 1143 344 1140 b 317 1120 332 1112 329 1113 b 265 1144 300 1129 285 1141 b 165 1096 223 1152 189 1128 b 176 1055 155 1083 163 1063 z "},"Ä":{"ha":531,"x_min":0,"x_max":0,"o":"m 461 8 b 333 744 418 253 375 499 b 297 952 321 813 309 882 b 260 973 294 968 274 977 b 238 938 243 968 236 953 b 107 218 195 698 151 458 b 70 14 95 150 82 82 b 91 -23 67 -2 74 -19 b 128 -2 106 -27 125 -19 b 196 369 151 121 173 245 b 337 369 243 369 290 369 b 366 200 347 312 357 256 b 403 -8 378 131 391 61 b 440 -29 405 -24 425 -33 b 461 8 456 -24 463 -8 z m 207 429 b 260 724 224 527 242 625 b 268 767 263 738 265 752 b 327 429 288 654 307 541 b 207 429 287 429 247 429 z m 200 1092 b 241 1133 222 1092 241 1110 b 200 1174 241 1156 222 1174 b 158 1133 177 1174 158 1156 b 200 1092 158 1110 177 1092 z m 310 1092 b 351 1133 333 1092 351 1110 b 310 1174 351 1156 333 1174 b 268 1133 287 1174 268 1156 b 310 1092 268 1110 287 1092 z "},"Å":{"ha":531,"x_min":0,"x_max":0,"o":"m 461 8 b 333 744 418 253 375 499 b 297 952 321 813 309 882 b 260 973 294 968 274 977 b 238 938 243 968 236 953 b 107 218 195 698 151 458 b 70 14 95 150 82 82 b 91 -23 67 -2 74 -19 b 128 -2 106 -27 125 -19 b 196 369 151 121 173 245 b 337 369 243 369 290 369 b 366 200 347 312 357 256 b 403 -8 378 131 391 61 b 440 -29 405 -24 425 -33 b 461 8 456 -24 463 -8 z m 207 429 b 260 724 224 527 242 625 b 268 767 263 738 265 752 b 327 429 288 654 307 541 b 207 429 287 429 247 429 z m 260 1019 b 341 1096 304 1019 337 1053 b 341 1100 341 1097 342 1099 b 341 1105 342 1102 341 1103 b 260 1181 337 1147 304 1181 b 179 1100 216 1181 179 1144 b 260 1019 179 1056 216 1019 z m 301 1100 b 219 1100 299 1048 219 1047 b 301 1100 219 1153 299 1153 z "},"Æ":{"ha":814,"x_min":0,"x_max":0,"o":"m 715 30 b 489 30 640 30 565 30 b 489 369 489 143 489 256 b 623 369 534 369 578 369 b 623 429 662 369 662 429 b 489 429 578 429 534 429 b 489 722 489 527 489 624 b 489 906 489 783 489 845 b 715 906 565 906 640 906 b 715 966 754 906 754 966 b 459 966 630 966 545 966 b 431 932 438 966 429 948 b 429 923 430 929 429 926 b 429 213 429 686 429 450 b 429 188 429 205 429 196 b 333 744 397 373 365 559 b 297 952 321 813 309 882 b 260 973 294 968 274 977 b 238 938 243 968 236 953 b 107 218 195 698 151 458 b 70 14 95 150 82 82 b 91 -23 67 -2 74 -19 b 128 -2 106 -27 125 -19 b 196 369 151 121 173 245 b 337 369 243 369 290 369 b 366 200 347 312 357 256 b 403 -8 378 131 391 61 b 440 -29 405 -24 425 -33 b 445 -27 442 -28 444 -28 b 459 -30 449 -29 454 -30 b 715 -30 545 -30 630 -30 b 715 30 754 -30 754 30 z m 207 429 b 260 724 224 527 242 625 b 268 767 263 738 265 752 b 327 429 288 654 307 541 b 207 429 287 429 247 429 z "},"Ç":{"ha":540,"x_min":0,"x_max":0,"o":"m 374 -20 b 387 -8 380 -17 384 -13 b 467 144 414 43 440 93 b 415 174 485 178 433 208 b 346 42 392 130 369 86 b 208 124 291 57 245 80 b 198 137 203 130 203 130 b 184 159 193 144 188 152 b 165 199 176 173 170 186 b 138 314 152 236 143 275 b 140 622 125 414 125 521 b 219 844 151 699 171 781 b 224 851 219 845 223 850 b 232 860 227 854 230 857 b 250 876 238 866 244 871 b 254 880 251 878 253 879 b 255 881 254 880 255 880 b 264 887 258 883 261 885 b 282 896 270 890 276 893 b 282 896 282 896 282 896 b 287 898 284 897 285 898 b 296 901 290 899 293 900 b 306 903 299 902 302 903 b 310 904 307 903 308 904 b 310 904 310 904 310 904 b 329 904 317 904 323 905 b 334 904 330 904 332 904 b 404 781 357 863 381 822 b 456 811 423 747 475 778 b 410 892 440 838 425 865 b 384 939 401 908 392 923 b 379 946 382 941 381 944 b 340 963 370 960 355 962 b 153 854 260 973 193 918 b 70 498 89 750 73 618 b 121 151 67 383 72 257 b 316 -12 160 67 232 15 b 267 -46 300 -23 284 -34 b 277 -83 251 -57 257 -82 b 341 -91 299 -84 320 -86 b 266 -110 317 -101 292 -109 b 175 -72 233 -111 195 -101 b 140 -92 160 -51 125 -71 b 257 -150 167 -130 211 -149 b 408 -104 310 -151 361 -127 b 403 -68 425 -96 418 -73 b 334 -49 381 -59 357 -53 b 369 -24 345 -41 357 -33 b 374 -20 371 -23 373 -21 z m 283 897 b 283 897 285 898 284 897 z "},"È":{"ha":454,"x_min":0,"x_max":0,"o":"m 355 30 b 130 30 280 30 205 30 b 130 369 130 143 130 256 b 263 369 174 369 219 369 b 263 429 302 369 302 429 b 130 429 219 429 174 429 b 130 722 130 527 130 624 b 130 906 130 783 130 845 b 355 906 205 906 280 906 b 355 966 394 906 394 966 b 100 966 270 966 185 966 b 71 932 78 966 69 948 b 69 923 70 929 69 926 b 69 213 69 686 69 450 b 69 13 69 146 69 79 b 71 4 69 9 70 6 b 100 -30 69 -13 79 -30 b 355 -30 185 -30 270 -30 b 355 30 394 -30 394 30 z m 237 1032 b 279 1074 263 1003 305 1046 b 168 1196 242 1115 205 1155 b 125 1153 142 1224 99 1181 b 237 1032 162 1113 200 1072 z "},"É":{"ha":454,"x_min":0,"x_max":0,"o":"m 355 30 b 130 30 280 30 205 30 b 130 369 130 143 130 256 b 263 369 174 369 219 369 b 263 429 302 369 302 429 b 130 429 219 429 174 429 b 130 722 130 527 130 624 b 130 906 130 783 130 845 b 355 906 205 906 280 906 b 355 966 394 906 394 966 b 100 966 270 966 185 966 b 71 932 78 966 69 948 b 69 923 70 929 69 926 b 69 213 69 686 69 450 b 69 13 69 146 69 79 b 71 4 69 9 70 6 b 100 -30 69 -13 79 -30 b 355 -30 185 -30 270 -30 b 355 30 394 -30 394 30 z m 188 1032 b 300 1153 225 1072 262 1113 b 257 1196 326 1181 283 1224 b 146 1074 220 1155 183 1115 b 188 1032 119 1046 162 1003 z "},"Ê":{"ha":454,"x_min":0,"x_max":0,"o":"m 355 30 b 130 30 280 30 205 30 b 130 369 130 143 130 256 b 263 369 174 369 219 369 b 263 429 302 369 302 429 b 130 429 219 429 174 429 b 130 722 130 527 130 624 b 130 906 130 783 130 845 b 355 906 205 906 280 906 b 355 966 394 906 394 966 b 100 966 270 966 185 966 b 71 932 78 966 69 948 b 69 923 70 929 69 926 b 69 213 69 686 69 450 b 69 13 69 146 69 79 b 71 4 69 9 70 6 b 100 -30 69 -13 79 -30 b 355 -30 185 -30 270 -30 b 355 30 394 -30 394 30 z m 129 1027 b 171 1038 144 1018 161 1024 b 229 1121 190 1065 210 1093 b 284 1038 247 1093 266 1065 b 337 1068 306 1005 358 1036 b 256 1190 310 1109 283 1149 b 204 1190 243 1209 217 1209 b 118 1068 175 1149 147 1109 b 129 1027 109 1055 116 1035 z "},"Ë":{"ha":454,"x_min":0,"x_max":0,"o":"m 355 30 b 130 30 280 30 205 30 b 130 369 130 143 130 256 b 263 369 174 369 219 369 b 263 429 302 369 302 429 b 130 429 219 429 174 429 b 130 722 130 527 130 624 b 130 906 130 783 130 845 b 355 906 205 906 280 906 b 355 966 394 906 394 966 b 100 966 270 966 185 966 b 71 932 78 966 69 948 b 69 923 70 929 69 926 b 69 213 69 686 69 450 b 69 13 69 146 69 80 b 71 4 69 9 70 6 b 100 -30 69 -12 79 -30 b 355 -30 185 -30 270 -30 b 355 30 394 -30 394 30 z m 172 1092 b 214 1133 195 1092 214 1110 b 172 1174 214 1156 195 1174 b 131 1133 150 1174 131 1156 b 172 1092 131 1110 150 1092 z m 283 1092 b 324 1133 305 1092 324 1110 b 283 1174 324 1156 305 1174 b 241 1133 260 1174 241 1156 b 283 1092 241 1110 260 1092 z "},"Ì":{"ha":318,"x_min":0,"x_max":0,"o":"m 194 1032 b 236 1074 220 1003 262 1046 b 125 1196 199 1115 162 1155 b 82 1153 98 1224 56 1181 b 194 1032 119 1113 156 1072 z m 220 37 b 191 37 210 37 200 37 b 191 744 191 273 191 509 b 191 919 191 803 191 861 b 220 919 200 919 210 919 b 220 979 258 919 258 979 b 98 979 179 979 139 979 b 98 919 60 979 60 919 b 131 919 109 919 120 919 b 131 226 131 688 131 457 b 131 37 131 163 131 100 b 98 37 120 37 109 37 b 98 -23 60 37 60 -23 b 220 -23 139 -23 179 -23 b 220 37 258 -23 258 37 z "},"Í":{"ha":318,"x_min":0,"x_max":0,"o":"m 125 1032 b 236 1153 162 1072 199 1113 b 194 1196 262 1181 220 1224 b 82 1074 156 1155 119 1115 b 125 1032 56 1046 98 1003 z m 220 37 b 191 37 210 37 200 37 b 191 744 191 273 191 509 b 191 919 191 803 191 861 b 220 919 200 919 210 919 b 220 979 258 919 258 979 b 98 979 179 979 139 979 b 98 919 60 979 60 919 b 131 919 109 919 120 919 b 131 226 131 688 131 457 b 131 37 131 163 131 100 b 98 37 120 37 109 37 b 98 -23 60 37 60 -23 b 220 -23 139 -23 179 -23 b 220 37 258 -23 258 37 z "},"Î":{"ha":367,"x_min":0,"x_max":0,"o":"m 292 1068 b 212 1190 265 1109 238 1149 b 159 1190 198 1209 173 1209 b 74 1068 131 1149 102 1109 b 85 1027 64 1055 71 1035 b 126 1038 100 1018 117 1024 b 185 1121 146 1065 165 1093 b 240 1038 203 1093 221 1065 b 292 1068 261 1005 314 1036 z m 215 919 b 243 919 224 919 234 919 b 243 979 282 919 282 979 b 122 979 203 979 163 979 b 122 919 84 979 83 919 b 154 919 133 919 144 919 b 154 226 154 688 154 457 b 154 37 154 163 154 100 b 122 37 144 37 133 37 b 122 -23 84 37 83 -23 b 243 -23 163 -23 203 -23 b 243 37 282 -23 282 37 b 215 37 234 37 224 37 b 215 744 215 273 215 509 b 215 919 215 803 215 861 z "},"Ï":{"ha":332,"x_min":0,"x_max":0,"o":"m 111 1092 b 152 1133 134 1092 152 1110 b 111 1174 152 1156 134 1174 b 69 1133 88 1174 69 1156 b 111 1092 69 1110 88 1092 z m 221 1092 b 262 1133 244 1092 262 1110 b 221 1174 262 1156 244 1174 b 180 1133 198 1174 180 1156 b 221 1092 180 1110 198 1092 z m 201 919 b 230 919 211 919 221 919 b 230 979 269 919 269 979 b 109 979 190 979 149 979 b 109 919 70 979 70 919 b 141 919 120 919 130 919 b 141 226 141 688 141 457 b 141 37 141 163 141 100 b 109 37 130 37 120 37 b 109 -23 70 37 70 -23 b 230 -23 149 -23 190 -23 b 230 37 269 -23 269 37 b 201 37 221 37 211 37 b 201 744 201 273 201 509 b 201 919 201 803 201 861 z "},"Ñ":{"ha":590,"x_min":0,"x_max":0,"o":"m 520 16 b 520 736 520 256 520 496 b 520 941 520 804 520 873 b 460 941 520 980 460 980 b 460 218 460 700 460 459 b 460 198 460 211 460 205 b 395 395 439 264 417 329 b 259 805 350 531 307 669 b 245 826 256 813 251 820 b 202 873 231 842 217 858 b 121 962 175 903 148 933 b 69 941 103 982 69 966 b 69 218 69 700 69 459 b 69 13 69 149 69 81 b 130 13 69 -26 130 -26 b 130 736 130 254 130 495 b 130 864 130 779 130 821 b 203 784 154 837 178 810 b 288 525 231 698 260 611 b 429 101 335 384 382 242 b 461 6 440 69 450 38 b 510 -10 466 -17 494 -22 b 520 16 518 -5 523 5 z m 214 1055 b 256 1066 230 1046 246 1053 b 289 1086 263 1076 275 1087 b 333 1064 305 1085 319 1071 b 428 1095 369 1047 411 1056 b 417 1136 435 1110 433 1127 b 376 1125 405 1143 383 1140 b 356 1120 371 1112 368 1113 b 304 1144 339 1129 323 1141 b 204 1096 262 1152 227 1128 b 214 1055 194 1083 201 1063 z "},"Ò":{"ha":632,"x_min":0,"x_max":0,"o":"m 519 761 b 406 942 496 828 463 898 b 244 955 358 979 297 986 b 123 790 184 919 148 853 b 70 512 88 702 74 606 b 103 215 66 412 76 311 b 368 -19 134 106 224 -80 b 496 125 429 6 469 67 b 559 395 534 210 552 302 b 562 473 561 421 562 447 b 519 761 562 570 550 669 z m 326 914 b 326 914 328 914 327 914 z m 464 212 b 371 52 446 153 419 91 b 347 37 367 49 355 41 b 345 36 346 37 345 36 b 343 36 345 36 344 36 b 335 33 341 35 338 34 b 327 31 333 32 330 32 b 325 31 326 31 326 31 b 324 31 325 31 325 31 b 307 31 319 30 313 30 b 306 31 307 31 306 31 b 304 31 306 31 305 31 b 296 33 302 32 299 32 b 269 46 286 36 281 38 b 219 99 252 57 232 79 b 175 189 201 127 186 157 b 131 436 147 268 134 352 b 159 705 128 526 135 617 b 244 877 175 766 200 831 b 296 912 260 894 278 907 b 304 914 299 913 302 913 b 306 914 305 914 306 914 b 307 914 306 914 307 914 b 324 914 313 915 319 915 b 325 914 324 914 325 914 b 333 913 327 914 330 913 b 347 908 339 911 345 909 b 455 761 400 882 434 818 b 501 473 489 669 501 570 b 464 212 501 384 491 296 z m 326 1032 b 368 1074 352 1003 395 1046 b 257 1196 331 1115 294 1155 b 214 1153 231 1224 188 1181 b 326 1032 252 1113 289 1072 z "},"Ó":{"ha":632,"x_min":0,"x_max":0,"o":"m 519 761 b 406 942 496 828 463 898 b 244 955 358 979 297 986 b 123 790 184 919 148 853 b 70 512 88 702 74 606 b 103 215 66 412 76 311 b 368 -19 134 106 224 -80 b 496 125 429 6 469 67 b 559 395 534 210 552 302 b 562 473 561 421 562 447 b 519 761 562 570 550 669 z m 326 914 b 326 914 328 914 327 914 z m 464 212 b 371 52 446 153 419 91 b 347 37 367 49 355 41 b 345 36 346 37 345 36 b 343 36 345 36 344 36 b 335 33 341 35 338 34 b 327 31 333 32 330 32 b 325 31 326 31 326 31 b 324 31 325 31 325 31 b 307 31 319 30 313 30 b 306 31 307 31 306 31 b 304 31 306 31 305 31 b 296 33 302 32 299 32 b 269 46 286 36 281 38 b 219 99 252 57 232 79 b 175 189 201 127 186 157 b 131 436 147 268 134 352 b 159 705 128 526 135 617 b 244 877 175 766 200 831 b 296 912 260 894 278 907 b 304 914 299 913 302 913 b 306 914 305 914 306 914 b 307 914 306 914 307 914 b 324 914 313 915 319 915 b 325 914 324 914 325 914 b 333 913 327 914 330 913 b 347 908 339 911 345 909 b 455 761 400 882 434 818 b 501 473 489 669 501 570 b 464 212 501 384 491 296 z m 262 1032 b 374 1153 300 1072 337 1113 b 331 1196 400 1181 358 1224 b 220 1074 294 1155 257 1115 b 262 1032 194 1046 236 1003 z "},"Ô":{"ha":632,"x_min":0,"x_max":0,"o":"m 519 761 b 406 942 496 828 463 898 b 244 955 358 979 297 986 b 123 790 184 919 148 853 b 70 512 88 702 74 606 b 103 215 66 412 76 311 b 368 -19 134 106 224 -80 b 496 125 429 6 469 67 b 559 395 534 210 552 302 b 562 473 561 421 562 447 b 519 761 562 570 550 669 z m 326 914 b 326 914 328 914 327 914 z m 464 212 b 371 52 446 153 419 91 b 347 37 367 49 356 41 b 345 36 346 37 345 36 b 343 36 345 36 344 36 b 335 33 341 35 338 34 b 327 31 333 32 330 32 b 325 31 326 31 326 31 b 324 31 325 31 325 31 b 307 31 319 30 313 30 b 306 31 307 31 306 31 b 304 31 306 31 305 31 b 296 33 302 32 299 32 b 269 46 286 36 281 38 b 219 99 252 57 232 79 b 175 189 201 127 186 157 b 131 436 147 268 134 352 b 159 705 128 526 135 617 b 244 877 175 766 200 831 b 296 912 260 894 278 907 b 304 914 299 913 302 913 b 306 914 305 914 306 914 b 307 914 306 914 307 914 b 324 914 313 915 319 915 b 325 914 324 914 325 914 b 333 913 327 914 330 913 b 347 908 339 911 345 909 b 455 761 400 882 434 818 b 501 473 489 669 501 570 b 464 212 501 384 491 296 z m 220 1027 b 261 1038 235 1018 252 1024 b 320 1121 281 1065 300 1093 b 375 1038 338 1093 357 1065 b 427 1068 396 1005 449 1036 b 347 1190 400 1109 374 1149 b 295 1190 334 1209 308 1209 b 209 1068 266 1149 238 1109 b 220 1027 200 1055 207 1035 z "},"Õ":{"ha":632,"x_min":0,"x_max":0,"o":"m 519 710 b 406 892 496 777 463 847 b 244 904 358 928 297 935 b 123 739 184 869 148 802 b 70 461 88 651 74 555 b 103 164 66 362 76 260 b 368 -70 134 56 224 -131 b 496 75 429 -44 469 16 b 559 344 534 159 552 252 b 562 422 561 370 562 396 b 519 710 562 519 550 618 z m 326 864 b 326 864 328 864 327 864 z m 464 161 b 371 2 446 103 419 41 b 347 -14 367 -2 355 -9 b 345 -14 346 -14 345 -14 b 343 -15 345 -15 344 -15 b 335 -18 341 -16 338 -17 b 327 -20 333 -18 330 -19 b 325 -20 326 -20 326 -20 b 324 -20 325 -20 325 -20 b 307 -20 319 -20 313 -20 b 306 -20 307 -20 306 -20 b 304 -20 306 -20 305 -20 b 296 -18 302 -19 299 -18 b 269 -5 286 -15 281 -13 b 219 49 252 7 232 28 b 175 138 201 76 186 107 b 131 386 147 217 134 302 b 159 654 128 476 135 567 b 244 826 175 715 200 781 b 296 861 260 844 278 856 b 304 863 299 862 302 863 b 306 864 305 864 306 864 b 307 864 306 864 307 864 b 324 864 313 864 319 864 b 325 864 324 864 325 864 b 333 862 327 863 330 863 b 347 857 339 860 345 858 b 455 710 400 832 434 768 b 501 422 489 618 501 519 b 464 161 501 334 491 245 z m 207 1004 b 248 1015 222 995 238 1002 b 281 1035 255 1026 268 1036 b 325 1013 297 1034 312 1020 b 420 1044 361 996 404 1005 b 409 1085 427 1059 425 1076 b 368 1075 397 1093 375 1090 b 348 1069 363 1061 360 1063 b 296 1094 331 1079 316 1090 b 196 1045 254 1102 219 1078 b 207 1004 186 1032 194 1012 z "},"Ö":{"ha":632,"x_min":0,"x_max":0,"o":"m 519 761 b 406 942 496 828 463 898 b 244 955 358 979 297 986 b 123 790 184 919 148 853 b 70 512 88 702 74 606 b 103 215 66 412 76 311 b 368 -19 134 106 224 -80 b 496 125 429 6 469 67 b 559 395 534 210 552 302 b 562 473 561 421 562 447 b 519 761 562 570 550 669 z m 326 914 b 326 914 328 914 327 914 z m 464 212 b 371 52 446 153 419 91 b 347 37 367 49 356 41 b 345 36 346 37 345 36 b 343 36 345 36 344 36 b 335 33 341 35 338 34 b 327 31 333 32 330 32 b 325 31 326 31 326 31 b 324 31 325 31 325 31 b 307 31 319 30 313 30 b 306 31 307 31 306 31 b 304 31 306 31 305 31 b 296 33 302 32 299 32 b 269 46 286 36 281 38 b 219 99 252 57 232 79 b 175 189 201 127 186 157 b 131 436 147 268 134 352 b 159 705 128 526 135 617 b 244 877 175 766 200 831 b 296 912 260 894 278 907 b 304 914 299 913 302 913 b 306 914 305 914 306 914 b 307 914 306 914 307 914 b 324 914 313 915 319 915 b 325 914 324 914 325 914 b 333 913 327 914 330 913 b 347 908 339 911 345 909 b 455 761 400 882 434 818 b 501 473 489 669 501 570 b 464 212 501 384 491 296 z m 270 1092 b 311 1133 292 1092 311 1110 b 270 1174 311 1156 292 1174 b 228 1133 247 1174 228 1156 b 270 1092 228 1110 247 1092 z m 380 1092 b 421 1133 403 1092 421 1110 b 380 1174 421 1156 403 1174 b 338 1133 357 1174 338 1156 b 380 1092 338 1110 357 1092 z "},"Ø":{"ha":660,"x_min":0,"x_max":0,"o":"m 547 761 b 497 871 534 798 518 837 b 566 1045 520 929 543 987 b 545 1082 572 1060 560 1078 b 508 1061 528 1087 514 1076 b 454 925 490 1016 472 970 b 434 942 447 931 441 937 b 272 955 386 979 325 986 b 151 790 212 919 176 853 b 98 512 116 702 102 606 b 131 215 94 412 104 311 b 149 162 136 199 142 181 b 71 -32 123 98 97 33 b 92 -69 65 -47 78 -65 b 129 -48 109 -73 123 -63 b 184 89 147 -2 165 43 b 396 -19 230 8 301 -59 b 523 125 457 6 497 67 b 587 395 562 210 580 302 b 590 473 589 421 590 447 b 547 761 590 570 578 669 z m 354 914 b 354 914 356 914 355 914 z m 159 436 b 187 705 155 526 163 617 b 271 877 203 766 228 831 b 324 912 288 894 305 907 b 332 914 327 913 330 913 b 334 914 333 914 334 914 b 335 914 334 914 335 914 b 352 914 341 915 346 915 b 353 914 352 914 353 914 b 360 913 355 914 358 913 b 375 908 367 911 373 909 b 429 863 396 898 414 882 b 184 251 347 659 266 455 b 159 436 168 311 161 374 z m 492 212 b 399 52 474 153 447 91 b 375 37 395 49 383 41 b 373 36 374 37 373 36 b 371 36 372 36 372 36 b 363 33 368 35 366 34 b 355 31 360 32 358 32 b 353 31 354 31 354 31 b 352 31 353 31 353 31 b 335 31 346 30 341 30 b 334 31 335 31 334 31 b 332 31 334 31 333 31 b 324 33 330 32 327 32 b 297 46 314 36 309 38 b 247 99 280 57 260 79 b 213 163 234 119 223 141 b 467 798 298 375 383 586 b 483 761 473 786 478 773 b 529 473 517 669 529 570 b 492 212 529 384 519 296 z "},"Ù":{"ha":683,"x_min":0,"x_max":0,"o":"m 613 924 b 552 924 612 962 552 963 b 550 744 554 864 552 804 b 540 565 548 685 545 625 b 531 468 538 532 535 500 b 525 419 529 451 527 435 b 524 408 525 415 524 412 b 524 403 524 409 524 400 b 525 403 524 403 525 404 b 506 368 521 391 512 379 b 467 295 493 344 480 319 b 369 112 435 234 402 173 b 334 46 358 90 346 68 b 218 276 296 122 257 199 b 179 355 205 302 192 328 b 156 399 171 369 162 384 b 156 400 156 400 156 400 b 155 410 156 401 155 408 b 153 425 155 415 154 420 b 143 523 149 457 146 490 b 133 706 138 584 135 645 b 131 924 130 779 129 851 b 70 924 132 963 71 963 b 71 742 69 863 69 802 b 80 565 73 683 75 624 b 88 465 82 531 85 498 b 94 419 90 449 92 434 b 102 373 95 404 95 387 b 247 84 147 275 199 180 b 307 -35 267 44 287 4 b 360 -35 317 -55 349 -55 b 511 248 410 59 461 154 b 576 370 533 289 555 329 b 585 409 582 382 583 395 b 596 511 589 443 593 477 b 609 698 602 573 606 636 b 613 924 613 773 615 849 z m 154 403 b 155 402 154 405 155 402 b 155 401 155 401 155 401 b 154 403 155 401 155 402 z m 320 1032 b 363 1074 347 1003 389 1046 b 251 1196 326 1115 288 1155 b 209 1153 225 1224 183 1181 b 320 1032 246 1113 283 1072 z "},"Ú":{"ha":683,"x_min":0,"x_max":0,"o":"m 613 924 b 552 924 612 962 552 963 b 550 744 554 864 552 804 b 540 565 548 685 545 625 b 531 468 538 532 535 500 b 525 419 529 451 527 435 b 524 408 525 415 524 412 b 524 403 524 409 524 400 b 525 403 524 403 525 404 b 506 368 521 391 512 379 b 467 295 493 344 480 319 b 369 112 435 234 402 173 b 334 46 358 90 346 68 b 218 276 296 122 257 199 b 179 355 205 302 192 328 b 156 399 171 369 162 384 b 156 400 156 400 156 400 b 155 410 156 401 155 408 b 153 425 155 415 154 420 b 143 523 149 457 146 490 b 133 706 138 584 135 645 b 131 924 130 779 129 851 b 70 924 132 963 71 963 b 71 742 69 863 69 802 b 80 565 73 683 75 624 b 88 465 82 531 85 498 b 94 419 90 449 92 434 b 102 373 95 404 95 387 b 247 84 147 275 199 180 b 307 -35 267 44 287 4 b 360 -35 317 -55 349 -55 b 511 248 410 59 461 154 b 576 370 533 289 555 329 b 585 409 582 382 583 395 b 596 511 589 443 593 477 b 609 698 602 573 606 636 b 613 924 613 773 615 849 z m 154 403 b 155 402 154 405 155 402 b 155 401 155 401 155 401 b 154 403 155 401 155 402 z m 363 1032 b 474 1153 400 1072 437 1113 b 432 1196 500 1181 458 1224 b 320 1074 395 1155 357 1115 b 363 1032 294 1046 336 1003 z "},"Û":{"ha":683,"x_min":0,"x_max":0,"o":"m 613 924 b 552 924 612 962 552 963 b 550 744 554 864 552 804 b 540 565 548 685 545 625 b 531 468 538 532 535 500 b 525 419 529 451 527 435 b 524 408 525 415 524 412 b 524 403 524 409 524 400 b 525 403 524 403 525 404 b 506 368 522 391 512 379 b 467 295 493 344 480 319 b 369 112 435 234 402 173 b 334 46 358 90 346 68 b 218 276 296 122 257 199 b 179 355 205 302 192 328 b 156 399 171 369 162 384 b 156 400 156 400 156 400 b 155 410 156 401 155 408 b 153 425 155 415 154 420 b 143 523 149 457 146 490 b 133 706 138 584 135 645 b 131 924 130 779 129 851 b 70 924 132 963 71 963 b 71 742 69 863 69 802 b 80 565 73 683 75 624 b 88 465 82 531 85 498 b 94 419 90 449 92 434 b 102 373 95 404 95 387 b 247 84 147 275 199 180 b 307 -35 267 44 287 4 b 360 -35 317 -55 349 -55 b 511 248 410 59 461 154 b 576 370 533 289 555 329 b 585 409 582 382 583 395 b 596 511 589 443 593 477 b 609 698 602 573 606 636 b 613 924 613 773 615 849 z m 154 403 b 155 402 154 405 155 402 b 155 401 155 401 155 401 b 154 403 155 401 155 402 z m 254 1027 b 295 1038 269 1018 286 1024 b 353 1121 314 1065 334 1093 b 408 1038 372 1093 390 1065 b 461 1068 430 1005 482 1036 b 380 1190 434 1109 407 1149 b 328 1190 367 1209 341 1209 b 243 1068 300 1149 271 1109 b 254 1027 233 1055 240 1035 z "},"Ü":{"ha":683,"x_min":0,"x_max":0,"o":"m 613 924 b 552 924 612 962 552 963 b 550 744 554 864 552 804 b 540 565 548 685 545 625 b 531 468 538 532 535 500 b 525 419 529 451 527 435 b 524 408 525 415 524 412 b 524 403 524 409 524 400 b 525 403 524 403 525 404 b 506 368 521 391 512 379 b 467 295 493 344 480 319 b 369 112 435 234 402 173 b 334 46 358 90 346 68 b 218 276 296 122 257 199 b 179 355 205 302 192 328 b 156 399 171 369 162 384 b 156 400 156 400 156 400 b 155 410 156 401 155 408 b 153 425 155 415 154 420 b 143 523 149 457 146 490 b 133 706 138 584 135 645 b 131 924 130 779 129 851 b 70 924 132 963 71 963 b 71 742 69 863 69 802 b 80 565 73 683 75 624 b 88 465 82 531 85 498 b 94 419 90 449 92 434 b 102 373 95 404 95 387 b 247 84 147 275 199 180 b 307 -35 267 44 287 4 b 360 -35 317 -55 349 -55 b 511 248 410 59 461 154 b 576 370 533 289 555 329 b 585 409 582 382 583 395 b 596 511 589 443 593 477 b 609 698 602 573 606 636 b 613 924 613 773 615 849 z m 154 403 b 155 402 154 405 155 402 b 155 401 155 401 155 401 b 154 403 155 401 155 402 z m 279 1092 b 321 1133 302 1092 321 1110 b 279 1174 321 1156 302 1174 b 238 1133 257 1174 238 1156 b 279 1092 238 1110 257 1092 z m 390 1092 b 431 1133 412 1092 431 1110 b 390 1174 431 1156 412 1174 b 348 1133 367 1174 348 1156 b 390 1092 348 1110 367 1092 z "},"Ý":{"ha":614,"x_min":0,"x_max":0,"o":"m 486 944 b 379 412 446 767 413 590 b 307 376 355 400 331 388 b 235 412 283 388 259 400 b 128 944 201 590 168 767 b 70 928 120 981 62 965 b 135 619 93 825 115 722 b 162 477 144 572 153 525 b 178 390 167 448 171 419 b 210 357 183 370 194 365 b 277 324 232 346 255 335 b 277 -4 277 215 277 105 b 337 -4 277 -42 337 -42 b 337 324 337 105 337 215 b 394 353 356 333 375 343 b 421 366 403 357 413 361 b 440 411 436 375 437 394 b 449 457 443 426 446 442 b 502 734 466 549 483 642 b 544 928 515 799 529 863 b 486 944 552 965 494 981 z m 273 1032 b 384 1153 310 1072 347 1113 b 342 1196 410 1181 368 1224 b 230 1074 304 1155 267 1115 b 273 1032 204 1046 246 1003 z "},"ß":{"ha":686,"x_min":0,"x_max":0,"o":"m 600 364 b 502 473 581 411 547 450 b 378 520 462 493 418 501 b 335 552 362 527 345 537 b 322 616 321 571 319 594 b 352 773 329 669 355 719 b 121 934 346 883 226 967 b 117 933 120 934 118 933 b 69 909 99 944 69 936 b 69 230 69 682 69 456 b 69 35 69 165 69 100 b 130 35 69 -4 130 -4 b 130 714 130 261 130 488 b 130 875 130 768 130 821 b 137 877 132 875 135 876 b 292 771 205 897 289 844 b 264 629 293 722 271 677 b 300 500 257 582 265 534 b 514 390 360 442 457 451 b 518 163 574 327 568 229 b 223 74 450 72 328 51 b 207 16 185 83 169 25 b 530 87 319 -9 443 8 b 600 364 607 157 640 267 z "},"à":{"ha":531,"x_min":0,"x_max":0,"o":"m 308 1032 b 351 1074 334 1003 377 1046 b 239 1196 314 1115 276 1155 b 197 1153 213 1224 171 1181 b 308 1032 234 1113 271 1072 z m 461 8 b 333 744 418 253 375 499 b 297 952 321 813 309 882 b 260 973 294 968 274 977 b 238 938 243 968 236 953 b 107 218 195 698 151 458 b 70 14 95 150 82 82 b 91 -23 67 -2 74 -19 b 128 -2 106 -27 125 -19 b 196 369 151 121 173 245 b 337 369 243 369 290 369 b 366 200 347 312 357 256 b 403 -8 378 131 391 61 b 440 -29 405 -24 425 -33 b 461 8 456 -24 463 -8 z m 207 429 b 260 724 224 527 242 625 b 268 767 263 738 265 752 b 327 429 288 654 307 541 b 207 429 287 429 247 429 z "},"á":{"ha":531,"x_min":0,"x_max":0,"o":"m 234 1032 b 345 1153 271 1072 308 1113 b 303 1196 372 1181 329 1224 b 191 1074 266 1155 229 1115 b 234 1032 165 1046 208 1003 z m 461 8 b 333 744 418 253 375 499 b 297 952 321 813 309 882 b 260 973 294 968 274 977 b 238 938 243 968 236 953 b 107 218 195 698 151 458 b 70 14 95 150 82 82 b 91 -23 67 -2 74 -19 b 128 -2 106 -27 125 -19 b 196 369 151 121 173 245 b 337 369 243 369 290 369 b 366 200 347 312 357 256 b 403 -8 378 131 391 61 b 440 -29 405 -24 425 -33 b 461 8 456 -24 463 -8 z m 207 429 b 260 724 224 527 242 625 b 268 767 263 738 265 752 b 327 429 288 654 307 541 b 207 429 287 429 247 429 z "},"â":{"ha":531,"x_min":0,"x_max":0,"o":"m 461 8 b 333 744 418 253 375 499 b 297 952 321 813 309 882 b 260 973 294 968 274 977 b 238 938 243 968 236 953 b 107 218 195 698 151 458 b 70 14 95 150 82 82 b 91 -23 67 -2 74 -19 b 128 -2 106 -27 125 -19 b 196 369 151 121 173 245 b 337 369 243 369 290 369 b 366 200 347 312 357 256 b 403 -8 378 131 391 61 b 440 -29 405 -24 425 -33 b 461 8 456 -24 463 -8 z m 207 429 b 260 724 224 527 242 625 b 268 767 263 738 265 752 b 327 429 288 654 307 541 b 207 429 287 429 247 429 z m 155 1027 b 197 1038 170 1018 187 1024 b 255 1121 216 1065 236 1093 b 310 1038 274 1093 292 1065 b 363 1068 332 1005 384 1036 b 282 1190 336 1109 309 1149 b 230 1190 269 1209 243 1209 b 144 1068 201 1149 173 1109 b 155 1027 135 1055 142 1035 z "},"ã":{"ha":531,"x_min":0,"x_max":0,"o":"m 461 8 b 333 744 418 253 375 499 b 297 952 321 813 309 882 b 260 973 294 968 274 977 b 238 938 243 968 236 953 b 107 218 195 698 151 458 b 70 14 95 150 82 82 b 91 -23 67 -2 74 -19 b 128 -2 106 -27 125 -19 b 196 369 151 121 173 245 b 337 369 243 369 290 369 b 366 200 347 312 357 256 b 403 -8 378 131 391 61 b 440 -29 405 -24 425 -33 b 461 8 456 -24 463 -8 z m 207 429 b 260 724 224 527 242 625 b 268 767 263 738 265 752 b 327 429 288 654 307 541 b 207 429 287 429 247 429 z m 176 1055 b 217 1066 191 1046 207 1053 b 251 1086 224 1076 237 1087 b 294 1064 266 1085 281 1071 b 389 1095 330 1047 373 1056 b 379 1136 396 1110 394 1127 b 337 1125 366 1143 344 1140 b 317 1120 332 1112 329 1113 b 265 1144 300 1129 285 1141 b 165 1096 223 1152 189 1128 b 176 1055 155 1083 163 1063 z "},"ä":{"ha":531,"x_min":0,"x_max":0,"o":"m 461 8 b 333 744 418 253 375 499 b 297 952 321 813 309 882 b 260 973 294 968 274 977 b 238 938 243 968 236 953 b 107 218 195 698 151 458 b 70 14 95 150 82 82 b 91 -23 67 -2 74 -19 b 128 -2 106 -27 125 -19 b 196 369 151 121 173 245 b 337 369 243 369 290 369 b 366 200 347 312 357 256 b 403 -8 378 131 391 61 b 440 -29 405 -24 425 -33 b 461 8 456 -24 463 -8 z m 207 429 b 260 724 224 527 242 625 b 268 767 263 738 265 752 b 327 429 288 654 307 541 b 207 429 287 429 247 429 z m 200 1092 b 241 1133 222 1092 241 1110 b 200 1174 241 1156 222 1174 b 158 1133 177 1174 158 1156 b 200 1092 158 1110 177 1092 z m 310 1092 b 351 1133 333 1092 351 1110 b 310 1174 351 1156 333 1174 b 268 1133 287 1174 268 1156 b 310 1092 268 1110 287 1092 z "},"å":{"ha":531,"x_min":0,"x_max":0,"o":"m 461 8 b 333 744 418 253 375 499 b 297 952 321 813 309 882 b 260 973 294 968 274 977 b 238 938 243 968 236 953 b 107 218 195 698 151 458 b 70 14 95 150 82 82 b 91 -23 67 -2 74 -19 b 128 -2 106 -27 125 -19 b 196 369 151 121 173 245 b 337 369 243 369 290 369 b 366 200 347 312 357 256 b 403 -8 378 131 391 61 b 440 -29 405 -24 425 -33 b 461 8 456 -24 463 -8 z m 207 429 b 260 724 224 527 242 625 b 268 767 263 738 265 752 b 327 429 288 654 307 541 b 207 429 287 429 247 429 z m 260 1019 b 341 1096 304 1019 337 1053 b 341 1100 341 1097 342 1099 b 341 1105 342 1102 341 1103 b 260 1181 337 1147 304 1181 b 179 1100 216 1181 179 1144 b 260 1019 179 1056 216 1019 z m 301 1100 b 219 1100 299 1048 219 1047 b 301 1100 219 1153 299 1153 z "},"æ":{"ha":814,"x_min":0,"x_max":0,"o":"m 715 30 b 489 30 640 30 565 30 b 489 369 489 143 489 256 b 623 369 534 369 578 369 b 623 429 662 369 662 429 b 489 429 578 429 534 429 b 489 722 489 527 489 624 b 489 906 489 783 489 845 b 715 906 565 906 640 906 b 715 966 754 906 754 966 b 459 966 630 966 545 966 b 431 932 438 966 429 948 b 429 923 430 929 429 926 b 429 213 429 686 429 450 b 429 188 429 205 429 196 b 333 744 397 373 365 559 b 297 952 321 813 309 882 b 260 973 294 968 274 977 b 238 938 243 968 236 953 b 107 218 195 698 151 458 b 70 14 95 150 82 82 b 91 -23 67 -2 74 -19 b 128 -2 106 -27 125 -19 b 196 369 151 121 173 245 b 337 369 243 369 290 369 b 366 200 347 312 357 256 b 403 -8 378 131 391 61 b 440 -29 405 -24 425 -33 b 445 -27 442 -28 444 -28 b 459 -30 449 -29 454 -30 b 715 -30 545 -30 630 -30 b 715 30 754 -30 754 30 z m 207 429 b 260 724 224 527 242 625 b 268 767 263 738 265 752 b 327 429 288 654 307 541 b 207 429 287 429 247 429 z "},"ç":{"ha":540,"x_min":0,"x_max":0,"o":"m 374 -20 b 387 -8 380 -17 384 -13 b 467 144 414 43 440 93 b 415 174 485 178 433 208 b 346 42 392 130 369 86 b 208 124 291 57 245 80 b 198 137 203 130 203 130 b 184 159 193 144 188 152 b 165 199 176 173 170 186 b 138 314 152 236 143 275 b 140 622 125 414 125 521 b 219 844 151 699 171 781 b 224 851 219 845 223 850 b 232 860 227 854 230 857 b 250 876 238 866 244 871 b 254 880 251 878 253 879 b 255 881 254 880 255 880 b 264 887 258 883 261 885 b 282 896 270 890 276 893 b 282 896 282 896 282 896 b 287 898 284 897 285 898 b 296 901 290 899 293 900 b 306 903 299 902 302 903 b 310 904 307 903 308 904 b 310 904 310 904 310 904 b 329 904 317 904 323 905 b 334 904 330 904 332 904 b 404 781 357 863 381 822 b 456 811 423 747 475 778 b 410 892 440 838 425 865 b 384 939 401 908 392 923 b 379 946 382 941 381 944 b 340 963 370 960 355 962 b 153 854 260 973 193 918 b 70 498 89 750 73 618 b 121 151 67 383 72 257 b 316 -12 160 67 232 15 b 267 -46 300 -23 284 -34 b 277 -83 251 -57 257 -82 b 341 -91 299 -84 320 -86 b 266 -110 317 -101 292 -109 b 175 -72 233 -111 195 -101 b 140 -92 160 -51 125 -71 b 257 -150 167 -130 211 -149 b 408 -104 310 -151 361 -127 b 403 -68 425 -96 418 -73 b 334 -49 381 -59 357 -53 b 369 -24 345 -41 357 -33 b 374 -20 371 -23 373 -21 z m 283 897 b 283 897 285 898 284 897 z "},"è":{"ha":454,"x_min":0,"x_max":0,"o":"m 355 30 b 130 30 280 30 205 30 b 130 369 130 143 130 256 b 263 369 174 369 219 369 b 263 429 302 369 302 429 b 130 429 219 429 174 429 b 130 722 130 527 130 624 b 130 906 130 783 130 845 b 355 906 205 906 280 906 b 355 966 394 906 394 966 b 100 966 270 966 185 966 b 71 932 78 966 69 948 b 69 923 70 929 69 926 b 69 213 69 686 69 450 b 69 13 69 146 69 80 b 71 4 69 9 70 6 b 100 -30 69 -13 79 -30 b 355 -30 185 -30 270 -30 b 355 30 394 -30 394 30 z m 237 1032 b 279 1074 263 1003 305 1046 b 168 1196 242 1115 205 1155 b 125 1153 142 1224 99 1181 b 237 1032 162 1113 200 1072 z "},"é":{"ha":454,"x_min":0,"x_max":0,"o":"m 355 30 b 130 30 280 30 205 30 b 130 369 130 143 130 256 b 263 369 174 369 219 369 b 263 429 302 369 302 429 b 130 429 219 429 174 429 b 130 722 130 527 130 624 b 130 906 130 783 130 845 b 355 906 205 906 280 906 b 355 966 394 906 394 966 b 100 966 270 966 185 966 b 71 932 78 966 69 948 b 69 923 70 929 69 926 b 69 213 69 686 69 450 b 69 13 69 146 69 80 b 71 4 69 9 70 6 b 100 -30 69 -12 79 -30 b 355 -30 185 -30 270 -30 b 355 30 394 -30 394 30 z m 188 1032 b 300 1153 225 1072 262 1113 b 257 1196 326 1181 283 1224 b 146 1074 220 1155 183 1115 b 188 1032 119 1046 162 1003 z "},"ê":{"ha":454,"x_min":0,"x_max":0,"o":"m 355 30 b 130 30 280 30 205 30 b 130 369 130 143 130 256 b 263 369 174 369 219 369 b 263 429 302 369 302 429 b 130 429 219 429 174 429 b 130 722 130 527 130 624 b 130 906 130 783 130 845 b 355 906 205 906 280 906 b 355 966 394 906 394 966 b 100 966 270 966 185 966 b 71 932 78 966 69 948 b 69 923 70 929 69 926 b 69 213 69 686 69 450 b 69 13 69 146 69 79 b 71 4 69 9 70 6 b 100 -30 69 -13 79 -30 b 355 -30 185 -30 270 -30 b 355 30 394 -30 394 30 z m 129 1027 b 171 1038 144 1018 161 1024 b 229 1121 190 1065 210 1093 b 284 1038 247 1093 266 1065 b 337 1068 306 1005 358 1036 b 256 1190 310 1109 283 1149 b 204 1190 243 1209 217 1209 b 118 1068 175 1149 147 1109 b 129 1027 109 1055 116 1035 z "},"ë":{"ha":454,"x_min":0,"x_max":0,"o":"m 355 30 b 130 30 280 30 205 30 b 130 369 130 143 130 256 b 263 369 174 369 219 369 b 263 429 302 369 302 429 b 130 429 219 429 174 429 b 130 722 130 527 130 624 b 130 906 130 783 130 845 b 355 906 205 906 280 906 b 355 966 394 906 394 966 b 100 966 270 966 185 966 b 71 932 78 966 69 948 b 69 923 70 929 69 926 b 69 213 69 686 69 450 b 69 13 69 146 69 79 b 71 4 69 9 70 6 b 100 -30 69 -13 79 -30 b 355 -30 185 -30 270 -30 b 355 30 394 -30 394 30 z m 172 1092 b 214 1133 195 1092 214 1110 b 172 1174 214 1156 195 1174 b 131 1133 150 1174 131 1156 b 172 1092 131 1110 150 1092 z m 283 1092 b 324 1133 305 1092 324 1110 b 283 1174 324 1156 305 1174 b 241 1133 260 1174 241 1156 b 283 1092 241 1110 260 1092 z "},"ì":{"ha":318,"x_min":0,"x_max":0,"o":"m 194 1032 b 236 1074 220 1003 262 1046 b 125 1196 199 1115 162 1155 b 82 1153 98 1224 56 1181 b 194 1032 119 1113 156 1072 z m 220 37 b 191 37 210 37 200 37 b 191 744 191 273 191 509 b 191 919 191 803 191 861 b 220 919 200 919 210 919 b 220 979 258 919 258 979 b 98 979 179 979 139 979 b 98 919 60 979 60 919 b 131 919 109 919 120 919 b 131 226 131 688 131 457 b 131 37 131 163 131 100 b 98 37 120 37 109 37 b 98 -23 60 37 60 -23 b 220 -23 139 -23 179 -23 b 220 37 258 -23 258 37 z "},"í":{"ha":318,"x_min":0,"x_max":0,"o":"m 125 1032 b 236 1153 162 1072 199 1113 b 194 1196 262 1181 220 1224 b 82 1074 156 1155 119 1115 b 125 1032 56 1046 98 1003 z m 220 37 b 191 37 210 37 200 37 b 191 744 191 273 191 509 b 191 919 191 803 191 861 b 220 919 200 919 210 919 b 220 979 258 919 258 979 b 98 979 179 979 139 979 b 98 919 60 979 60 919 b 131 919 109 919 120 919 b 131 226 131 688 131 457 b 131 37 131 163 131 100 b 98 37 120 37 109 37 b 98 -23 60 37 60 -23 b 220 -23 139 -23 179 -23 b 220 37 258 -23 258 37 z "},"î":{"ha":367,"x_min":0,"x_max":0,"o":"m 292 1068 b 212 1190 265 1109 238 1149 b 159 1190 198 1209 173 1209 b 74 1068 131 1149 102 1109 b 85 1027 64 1055 71 1035 b 126 1038 100 1018 117 1024 b 185 1121 146 1065 165 1093 b 240 1038 203 1093 221 1065 b 292 1068 261 1005 314 1036 z m 215 919 b 243 919 224 919 234 919 b 243 979 282 919 282 979 b 122 979 203 979 163 979 b 122 919 84 979 83 919 b 154 919 133 919 144 919 b 154 226 154 688 154 457 b 154 37 154 163 154 100 b 122 37 144 37 133 37 b 122 -23 84 37 83 -23 b 243 -23 163 -23 203 -23 b 243 37 282 -23 282 37 b 215 37 234 37 224 37 b 215 744 215 273 215 509 b 215 919 215 803 215 861 z "},"ï":{"ha":332,"x_min":0,"x_max":0,"o":"m 111 1092 b 152 1133 134 1092 152 1110 b 111 1174 152 1156 134 1174 b 69 1133 88 1174 69 1156 b 111 1092 69 1110 88 1092 z m 221 1092 b 262 1133 244 1092 262 1110 b 221 1174 262 1156 244 1174 b 180 1133 198 1174 180 1156 b 221 1092 180 1110 198 1092 z m 201 919 b 230 919 211 919 221 919 b 230 979 269 919 269 979 b 109 979 190 979 149 979 b 109 919 70 979 70 919 b 141 919 120 919 130 919 b 141 226 141 688 141 457 b 141 37 141 163 141 100 b 109 37 130 37 120 37 b 109 -23 70 37 70 -23 b 230 -23 149 -23 190 -23 b 230 37 269 -23 269 37 b 201 37 221 37 211 37 b 201 744 201 273 201 509 b 201 919 201 803 201 861 z "},"ñ":{"ha":590,"x_min":0,"x_max":0,"o":"m 520 16 b 520 736 520 256 520 496 b 520 941 520 804 520 873 b 460 941 520 980 460 980 b 460 218 460 700 460 459 b 460 198 460 211 460 205 b 395 395 439 264 417 329 b 259 805 350 531 307 669 b 245 826 256 813 251 820 b 202 873 231 842 217 858 b 121 962 175 903 148 933 b 69 941 103 982 69 966 b 69 218 69 700 69 459 b 69 13 69 149 69 81 b 130 13 69 -26 130 -26 b 130 736 130 254 130 495 b 130 864 130 779 130 821 b 203 784 154 837 178 810 b 288 525 231 698 260 611 b 429 101 335 384 382 243 b 461 6 440 69 450 38 b 510 -10 466 -17 494 -22 b 520 16 518 -5 523 5 z m 214 1055 b 256 1066 230 1046 246 1053 b 289 1086 263 1076 276 1087 b 333 1064 305 1085 319 1071 b 428 1095 369 1047 411 1056 b 417 1136 435 1110 433 1127 b 376 1125 405 1143 383 1140 b 356 1120 371 1112 368 1113 b 304 1144 339 1129 323 1141 b 204 1096 262 1152 227 1128 b 214 1055 194 1083 201 1063 z "},"ò":{"ha":632,"x_min":0,"x_max":0,"o":"m 519 761 b 406 942 496 828 463 898 b 244 955 358 979 297 986 b 123 790 184 919 148 853 b 70 512 88 702 74 606 b 103 215 66 412 76 311 b 368 -19 134 106 224 -80 b 496 125 429 6 469 67 b 559 395 534 210 552 302 b 562 473 561 421 562 447 b 519 761 562 570 550 669 z m 326 914 b 326 914 328 914 327 914 z m 464 212 b 371 52 446 153 419 91 b 347 37 367 49 356 41 b 345 36 346 37 345 36 b 343 36 345 36 344 36 b 335 33 341 35 338 34 b 327 31 333 32 330 32 b 325 31 326 31 326 31 b 324 31 325 31 325 31 b 307 31 319 30 313 30 b 306 31 307 31 306 31 b 304 31 306 31 305 31 b 296 33 302 32 299 32 b 269 46 286 36 281 38 b 219 99 252 57 232 79 b 175 189 201 127 186 157 b 131 436 147 268 134 352 b 159 705 128 526 135 617 b 244 877 175 766 200 831 b 296 912 260 894 278 907 b 304 914 299 913 302 913 b 306 914 305 914 306 914 b 307 914 306 914 307 914 b 324 914 313 915 319 915 b 325 914 324 914 325 914 b 333 913 327 914 330 913 b 347 908 339 911 345 909 b 455 761 400 882 434 818 b 501 473 489 669 501 570 b 464 212 501 384 491 296 z m 326 1032 b 368 1074 352 1003 395 1046 b 257 1196 331 1115 294 1155 b 214 1153 231 1224 188 1181 b 326 1032 252 1113 289 1072 z "},"ó":{"ha":632,"x_min":0,"x_max":0,"o":"m 519 761 b 406 942 496 828 463 898 b 244 955 358 979 297 986 b 123 790 184 919 148 853 b 70 512 88 702 74 606 b 103 215 66 412 76 311 b 368 -19 134 106 224 -80 b 496 125 429 6 469 67 b 559 395 534 210 552 302 b 562 473 561 421 562 447 b 519 761 562 570 550 669 z m 326 914 b 326 914 328 914 327 914 z m 464 212 b 371 52 446 153 419 91 b 347 37 367 49 356 41 b 345 36 346 37 345 36 b 343 36 345 36 344 36 b 335 33 341 35 338 34 b 327 31 333 32 330 32 b 325 31 326 31 326 31 b 324 31 325 31 325 31 b 307 31 319 30 313 30 b 306 31 307 31 306 31 b 304 31 306 31 305 31 b 296 33 302 32 299 32 b 269 46 286 36 281 38 b 219 99 252 57 232 79 b 175 189 201 127 186 157 b 131 436 147 268 134 352 b 159 705 128 526 135 617 b 244 877 175 766 200 831 b 296 912 260 894 278 907 b 304 914 299 913 302 913 b 306 914 305 914 306 914 b 307 914 306 914 307 914 b 324 914 313 915 319 915 b 325 914 324 914 325 914 b 333 913 327 914 330 913 b 347 908 339 911 345 909 b 455 761 400 882 434 818 b 501 473 489 669 501 570 b 464 212 501 384 491 296 z m 262 1032 b 374 1153 300 1072 337 1113 b 331 1196 400 1181 358 1224 b 220 1074 294 1155 257 1115 b 262 1032 194 1046 236 1003 z "},"ô":{"ha":632,"x_min":0,"x_max":0,"o":"m 519 761 b 406 942 496 828 463 898 b 244 955 358 979 297 986 b 123 790 184 919 148 853 b 70 512 88 702 74 606 b 103 215 66 412 76 311 b 368 -19 134 106 224 -80 b 496 125 429 6 469 67 b 559 395 534 210 552 302 b 562 473 561 421 562 447 b 519 761 562 570 550 669 z m 326 914 b 326 914 328 914 327 914 z m 464 212 b 371 52 446 153 419 91 b 347 37 367 49 355 41 b 345 36 346 37 345 36 b 343 36 345 36 344 36 b 335 33 341 35 338 34 b 327 31 333 32 330 32 b 325 31 326 31 326 31 b 324 31 325 31 325 31 b 307 31 319 30 313 30 b 306 31 307 31 306 31 b 304 31 306 31 305 31 b 296 33 302 32 299 32 b 269 46 286 36 281 38 b 219 99 252 57 232 79 b 175 189 201 127 186 157 b 131 436 147 268 134 352 b 159 705 128 526 135 617 b 244 877 175 766 200 831 b 296 912 260 894 278 907 b 304 914 299 913 302 913 b 306 914 305 914 306 914 b 307 914 306 914 307 914 b 324 914 313 915 319 915 b 325 914 324 914 325 914 b 333 913 327 914 330 913 b 347 908 339 911 345 909 b 455 761 400 882 434 818 b 501 473 489 669 501 570 b 464 212 501 384 491 296 z m 220 1027 b 261 1038 235 1018 252 1024 b 320 1121 281 1065 300 1093 b 375 1038 338 1093 357 1065 b 427 1068 396 1005 449 1036 b 347 1190 400 1109 374 1149 b 295 1190 334 1209 308 1209 b 209 1068 266 1149 238 1109 b 220 1027 200 1055 207 1035 z "},"õ":{"ha":632,"x_min":0,"x_max":0,"o":"m 519 761 b 406 942 496 828 463 898 b 244 955 358 979 297 986 b 123 790 184 919 148 853 b 70 512 88 702 74 606 b 103 215 66 412 76 311 b 368 -19 134 106 224 -80 b 496 125 429 6 469 67 b 559 395 534 210 552 302 b 562 473 561 421 562 447 b 519 761 562 570 550 669 z m 326 914 b 326 914 328 914 327 914 z m 464 212 b 371 52 446 153 419 91 b 347 37 367 49 356 41 b 345 36 346 37 345 36 b 343 36 345 36 344 36 b 335 33 341 35 338 34 b 327 31 333 32 330 32 b 325 31 326 31 326 31 b 324 31 325 31 325 31 b 307 31 319 30 313 30 b 306 31 307 31 306 31 b 304 31 306 31 305 31 b 296 33 302 32 299 32 b 269 46 286 36 281 38 b 219 99 252 57 232 79 b 175 189 201 127 186 157 b 131 436 147 268 134 352 b 159 705 128 526 135 617 b 244 877 175 766 200 831 b 296 912 260 894 278 907 b 304 914 299 913 302 913 b 306 914 305 914 306 914 b 307 914 306 914 307 914 b 324 914 313 915 319 915 b 325 914 324 914 325 914 b 333 913 327 914 330 913 b 347 908 339 911 345 909 b 455 761 400 882 434 818 b 501 473 489 669 501 570 b 464 212 501 384 491 296 z m 207 1055 b 248 1066 222 1046 238 1053 b 281 1086 255 1076 268 1087 b 325 1064 297 1085 312 1071 b 420 1095 361 1047 404 1056 b 409 1136 427 1110 425 1127 b 368 1125 397 1143 375 1140 b 348 1120 363 1112 360 1113 b 296 1144 331 1129 316 1141 b 196 1096 254 1152 219 1128 b 207 1055 186 1083 194 1063 z "},"ö":{"ha":632,"x_min":0,"x_max":0,"o":"m 519 761 b 406 942 496 828 463 898 b 244 955 358 979 297 986 b 123 790 184 919 148 853 b 70 512 88 702 74 606 b 103 215 66 412 76 311 b 368 -19 134 106 224 -80 b 496 125 429 6 469 67 b 559 395 534 210 552 302 b 562 473 561 421 562 447 b 519 761 562 570 550 669 z m 326 914 b 326 914 328 914 327 914 z m 464 212 b 371 52 446 153 419 91 b 347 37 367 49 355 41 b 345 36 346 37 345 36 b 343 36 345 36 344 36 b 335 33 341 35 338 34 b 327 31 333 32 330 32 b 325 31 326 31 326 31 b 324 31 325 31 325 31 b 307 31 319 30 313 30 b 306 31 307 31 306 31 b 304 31 306 31 305 31 b 296 33 302 32 299 32 b 269 46 286 36 281 38 b 219 99 252 57 232 79 b 175 189 201 127 186 157 b 131 436 147 268 134 352 b 159 705 128 526 135 617 b 244 877 175 766 200 831 b 296 912 260 894 278 907 b 304 914 299 913 302 913 b 306 914 305 914 306 914 b 307 914 306 914 307 914 b 324 914 313 915 319 915 b 325 914 324 914 325 914 b 333 913 327 914 330 913 b 347 908 339 911 345 909 b 455 761 400 882 434 818 b 501 473 489 669 501 570 b 464 212 501 384 491 296 z m 270 1092 b 311 1133 292 1092 311 1110 b 270 1174 311 1156 292 1174 b 228 1133 247 1174 228 1156 b 270 1092 228 1110 247 1092 z m 380 1092 b 421 1133 403 1092 421 1110 b 380 1174 421 1156 403 1174 b 338 1133 357 1174 338 1156 b 380 1092 338 1110 357 1092 z "},"ø":{"ha":660,"x_min":0,"x_max":0,"o":"m 547 761 b 497 871 534 798 518 837 b 566 1045 520 929 543 987 b 545 1082 572 1060 560 1078 b 508 1061 528 1087 514 1076 b 454 925 490 1016 472 970 b 434 942 447 931 441 937 b 272 955 386 979 325 986 b 151 790 212 919 176 853 b 98 512 116 702 102 606 b 131 215 94 412 104 311 b 149 162 136 199 142 181 b 71 -32 123 98 97 33 b 92 -69 65 -47 78 -65 b 129 -48 109 -73 123 -63 b 184 89 147 -2 165 43 b 396 -19 230 8 301 -59 b 523 125 457 6 497 67 b 587 395 562 210 580 302 b 590 473 589 421 590 447 b 547 761 590 570 578 669 z m 354 914 b 354 914 356 914 355 914 z m 159 436 b 187 705 155 526 163 617 b 271 877 203 766 228 831 b 324 912 288 894 305 907 b 332 914 327 913 330 913 b 334 914 333 914 334 914 b 335 914 334 914 335 914 b 352 914 341 915 346 915 b 353 914 352 914 353 914 b 360 913 355 914 358 913 b 375 908 367 911 373 909 b 429 863 396 898 414 882 b 184 251 347 659 266 455 b 159 436 168 311 161 374 z m 492 212 b 399 52 474 153 447 91 b 375 37 395 49 383 41 b 373 36 374 37 373 36 b 371 36 372 36 372 36 b 363 33 368 35 366 34 b 355 31 360 32 358 32 b 353 31 354 31 354 31 b 352 31 353 31 353 31 b 335 31 346 30 341 30 b 334 31 335 31 334 31 b 332 31 334 31 333 31 b 324 33 330 32 327 32 b 297 46 314 36 309 38 b 247 99 280 57 260 79 b 213 163 234 119 223 141 b 467 798 298 375 383 586 b 483 761 473 786 478 773 b 529 473 517 669 529 570 b 492 212 529 384 519 296 z "},"ù":{"ha":683,"x_min":0,"x_max":0,"o":"m 613 924 b 552 924 612 962 552 963 b 550 744 554 864 552 804 b 540 565 548 685 545 625 b 531 468 538 532 535 500 b 525 419 529 451 527 435 b 524 408 525 415 524 412 b 524 403 524 409 524 400 b 525 403 524 403 525 404 b 506 368 521 391 512 379 b 467 295 493 344 480 319 b 369 112 435 234 402 173 b 334 46 358 90 346 68 b 218 276 296 122 257 199 b 179 355 205 302 192 328 b 156 399 171 369 162 384 b 156 400 156 400 156 400 b 155 410 156 401 155 408 b 153 425 155 415 154 420 b 143 523 149 457 146 490 b 133 706 138 584 135 645 b 131 924 130 779 129 851 b 70 924 132 963 71 963 b 71 742 69 863 69 802 b 80 565 73 683 75 624 b 88 465 82 531 85 498 b 94 419 90 449 92 434 b 102 373 95 404 95 387 b 247 84 147 275 199 180 b 307 -35 267 44 287 4 b 360 -35 317 -55 349 -55 b 511 248 410 59 461 154 b 576 370 533 289 555 329 b 585 409 582 382 583 395 b 596 511 589 443 593 477 b 609 698 602 573 606 636 b 613 924 613 773 615 849 z m 154 403 b 155 402 154 405 155 402 b 155 401 155 401 155 401 b 154 403 155 401 155 402 z m 320 1032 b 363 1074 347 1003 389 1046 b 251 1196 326 1115 288 1155 b 209 1153 225 1224 183 1181 b 320 1032 246 1113 283 1072 z "},"ú":{"ha":683,"x_min":0,"x_max":0,"o":"m 613 924 b 552 924 612 962 552 963 b 550 744 554 864 552 804 b 540 565 548 685 545 625 b 531 468 538 532 535 500 b 525 419 529 451 527 435 b 524 408 525 415 524 412 b 524 403 524 409 524 400 b 525 403 524 403 525 404 b 506 368 522 391 512 379 b 467 295 493 344 480 319 b 369 112 435 234 402 173 b 334 46 358 90 346 68 b 218 276 296 122 257 199 b 179 355 205 302 192 328 b 156 399 171 369 162 384 b 156 400 156 400 156 400 b 155 410 156 401 155 408 b 153 425 155 415 154 420 b 143 523 149 457 146 490 b 133 706 138 584 135 645 b 131 924 130 779 129 851 b 70 924 132 963 71 963 b 71 742 69 863 69 802 b 80 565 73 683 75 624 b 88 465 82 531 85 498 b 94 419 90 449 92 434 b 102 373 95 404 95 387 b 247 84 147 275 199 180 b 307 -35 267 44 287 4 b 360 -35 317 -55 349 -55 b 511 248 410 59 461 154 b 576 370 533 289 555 329 b 585 409 582 382 583 395 b 596 511 589 443 593 477 b 609 698 602 573 606 636 b 613 924 613 773 615 849 z m 154 403 b 155 402 154 405 155 402 b 155 401 155 401 155 401 b 154 403 155 401 155 402 z m 363 1032 b 474 1153 400 1072 437 1113 b 432 1196 500 1181 458 1224 b 320 1074 395 1155 357 1115 b 363 1032 294 1046 336 1003 z "},"û":{"ha":683,"x_min":0,"x_max":0,"o":"m 613 924 b 552 924 612 962 552 963 b 550 744 554 864 552 804 b 540 565 548 685 545 625 b 531 468 538 532 535 500 b 525 419 529 451 527 435 b 524 408 525 415 524 412 b 524 403 524 409 524 400 b 525 403 524 403 525 404 b 506 368 522 391 512 379 b 467 295 493 344 480 319 b 369 112 435 234 402 173 b 334 46 358 90 346 68 b 218 276 296 122 257 199 b 179 355 205 302 192 328 b 156 399 171 369 162 384 b 156 400 156 400 156 400 b 155 410 156 401 155 408 b 153 425 155 415 154 420 b 143 523 149 457 146 490 b 133 706 138 584 135 645 b 131 924 130 779 129 851 b 70 924 132 963 71 963 b 71 742 69 863 69 802 b 80 565 73 683 75 624 b 88 465 82 531 85 498 b 94 419 90 449 92 434 b 102 373 95 404 95 387 b 247 84 147 275 199 180 b 307 -35 267 44 287 4 b 360 -35 317 -55 349 -55 b 511 248 410 59 461 154 b 576 370 533 289 555 329 b 585 409 582 382 583 395 b 596 511 589 443 593 477 b 609 698 602 573 606 636 b 613 924 613 773 615 849 z m 154 403 b 155 402 154 405 155 402 b 155 401 155 401 155 401 b 154 403 155 401 155 402 z m 254 1027 b 295 1038 269 1018 286 1024 b 353 1121 314 1065 334 1093 b 408 1038 372 1093 390 1065 b 461 1068 430 1005 482 1036 b 380 1190 434 1109 407 1149 b 328 1190 367 1209 341 1209 b 243 1068 300 1149 271 1109 b 254 1027 233 1055 240 1035 z "},"ü":{"ha":683,"x_min":0,"x_max":0,"o":"m 613 924 b 552 924 612 962 552 963 b 550 744 554 864 552 804 b 540 565 548 685 545 625 b 531 468 538 532 535 500 b 525 419 529 451 527 435 b 524 408 525 415 524 412 b 524 403 524 409 524 400 b 525 403 524 403 525 404 b 506 368 522 391 512 379 b 467 295 493 344 480 319 b 369 112 435 234 402 173 b 334 46 358 90 346 68 b 218 276 296 122 257 199 b 179 355 205 302 192 328 b 156 399 171 369 162 384 b 156 400 156 400 156 400 b 155 410 156 401 155 408 b 153 425 155 415 154 420 b 143 523 149 457 146 490 b 133 706 138 584 135 645 b 131 924 130 779 129 851 b 70 924 132 963 71 963 b 71 742 69 863 70 802 b 80 565 73 683 75 624 b 88 465 82 531 85 498 b 94 419 90 449 92 434 b 102 373 95 404 95 387 b 247 84 147 275 199 180 b 307 -35 267 44 287 4 b 360 -35 317 -55 349 -55 b 511 248 410 59 461 154 b 576 370 533 289 555 329 b 585 409 582 382 583 395 b 596 511 589 443 593 477 b 609 698 602 573 606 636 b 613 924 613 773 615 849 z m 154 403 b 155 402 154 405 155 402 b 155 401 155 401 155 401 b 154 403 155 401 155 402 z m 279 1092 b 321 1133 302 1092 321 1110 b 279 1174 321 1156 302 1174 b 238 1133 257 1174 238 1156 b 279 1092 238 1110 257 1092 z m 390 1092 b 431 1133 412 1092 431 1110 b 390 1174 431 1156 412 1174 b 348 1133 367 1174 348 1156 b 390 1092 348 1110 367 1092 z "},"ý":{"ha":614,"x_min":0,"x_max":0,"o":"m 486 944 b 379 412 446 767 413 590 b 307 376 355 400 331 388 b 235 412 283 388 259 400 b 128 944 201 590 168 767 b 70 928 120 981 62 965 b 135 619 93 825 115 722 b 162 477 144 572 153 525 b 178 390 167 448 171 419 b 210 357 183 370 194 365 b 277 324 232 346 255 335 b 277 -4 277 215 277 105 b 337 -4 277 -42 337 -42 b 337 324 337 105 337 215 b 394 353 356 333 375 343 b 421 366 403 357 413 361 b 440 411 436 375 437 394 b 449 457 443 426 446 442 b 502 734 466 549 483 642 b 544 928 515 799 529 863 b 486 944 552 965 494 981 z m 273 1032 b 384 1153 310 1072 347 1113 b 342 1196 410 1181 368 1224 b 230 1074 304 1155 267 1115 b 273 1032 204 1046 246 1003 z "},"ÿ":{"ha":614,"x_min":0,"x_max":0,"o":"m 486 944 b 379 412 446 767 413 590 b 307 376 355 400 331 388 b 235 412 283 388 259 400 b 128 944 201 590 168 767 b 70 928 120 981 62 965 b 135 619 93 825 115 722 b 162 477 144 572 153 525 b 178 390 167 448 171 419 b 210 357 183 370 194 365 b 277 324 232 346 255 335 b 277 -4 277 215 277 105 b 337 -4 277 -42 337 -42 b 337 324 337 105 337 215 b 394 353 356 333 375 343 b 421 366 403 357 413 361 b 440 411 436 375 437 394 b 449 457 443 426 446 442 b 502 734 466 549 483 642 b 544 928 515 799 529 863 b 486 944 552 965 494 981 z m 256 1092 b 297 1133 278 1092 297 1110 b 256 1174 297 1156 278 1174 b 214 1133 233 1174 214 1156 b 256 1092 214 1110 233 1092 z m 366 1092 b 407 1133 389 1092 407 1110 b 366 1174 407 1156 389 1174 b 324 1133 343 1174 324 1156 b 366 1092 324 1110 343 1092 z "},"Œ":{"ha":828,"x_min":0,"x_max":0,"o":"m 729 30 b 504 30 654 30 579 30 b 504 369 504 143 504 256 b 637 369 548 369 593 369 b 637 429 676 369 676 429 b 504 429 593 429 548 429 b 504 722 504 527 504 624 b 504 906 504 783 504 845 b 729 906 579 906 654 906 b 729 966 768 906 768 966 b 474 966 644 966 559 966 b 445 932 452 966 443 948 b 444 923 444 929 444 926 b 444 907 444 917 444 912 b 327 973 413 940 374 968 b 211 930 284 978 243 958 b 127 800 173 895 147 848 b 78 610 102 740 87 675 b 95 261 62 494 68 375 b 221 13 115 174 149 72 b 348 -22 258 -17 301 -30 b 444 25 383 -15 415 3 b 444 13 444 21 444 17 b 445 4 444 9 444 6 b 474 -30 443 -12 453 -30 b 729 -30 559 -30 644 -30 b 729 30 768 -30 768 30 z m 444 213 b 444 107 444 178 444 142 b 345 39 415 77 381 49 b 334 37 341 38 338 37 b 332 36 333 36 332 36 b 327 36 331 36 329 36 b 315 36 323 36 319 35 b 310 36 313 36 311 36 b 307 36 308 36 313 35 b 287 42 300 38 294 39 b 280 45 287 42 281 45 b 269 52 276 47 273 50 b 255 63 261 57 262 56 b 236 83 248 69 242 76 b 223 101 231 88 228 93 b 207 127 217 110 212 118 b 160 247 186 165 172 205 b 131 538 135 342 125 440 b 225 855 138 646 160 766 b 244 878 230 863 237 871 b 265 896 252 886 259 892 b 278 904 269 899 274 902 b 283 907 280 905 282 906 b 285 908 284 907 285 907 b 287 908 285 908 286 908 b 300 912 291 910 296 911 b 305 913 302 913 303 913 b 307 913 305 913 306 913 b 354 903 326 914 338 911 b 410 854 376 891 393 874 b 444 849 418 845 432 844 b 444 213 444 637 444 425 z "},"œ":{"ha":828,"x_min":0,"x_max":0,"o":"m 729 30 b 504 30 654 30 579 30 b 504 369 504 143 504 256 b 637 369 548 369 593 369 b 637 429 676 369 676 429 b 504 429 593 429 548 429 b 504 722 504 527 504 624 b 504 906 504 783 504 845 b 729 906 579 906 654 906 b 729 966 768 906 768 966 b 474 966 644 966 559 966 b 445 932 452 966 443 948 b 444 923 444 929 444 926 b 444 907 444 917 444 912 b 327 973 413 940 374 968 b 211 930 284 978 243 958 b 127 800 173 895 147 848 b 78 610 102 740 87 675 b 95 261 62 494 68 375 b 221 13 115 174 149 72 b 348 -22 258 -17 301 -30 b 444 25 383 -15 415 3 b 444 13 444 21 444 17 b 445 4 444 9 444 6 b 474 -30 443 -12 453 -30 b 729 -30 559 -30 644 -30 b 729 30 768 -30 768 30 z m 444 213 b 444 107 444 178 444 142 b 345 39 415 77 381 49 b 334 37 341 38 338 37 b 332 36 333 36 332 36 b 327 36 331 36 329 36 b 315 36 323 36 319 35 b 310 36 313 36 311 36 b 307 36 308 36 313 35 b 287 42 300 38 294 39 b 280 45 287 42 281 45 b 269 52 276 47 273 50 b 255 63 261 57 262 56 b 236 83 248 69 242 76 b 223 101 231 88 228 93 b 207 127 217 110 212 118 b 160 247 186 165 172 205 b 131 538 135 342 125 440 b 225 855 138 646 160 766 b 244 878 230 863 237 871 b 265 896 252 886 259 892 b 278 904 269 899 274 902 b 283 907 280 905 281 906 b 285 908 284 907 285 907 b 287 908 285 908 286 908 b 300 912 291 910 296 911 b 305 913 302 913 303 913 b 307 913 305 913 306 913 b 354 903 326 914 338 911 b 410 854 376 891 393 874 b 444 849 418 845 432 844 b 444 213 444 637 444 425 z "},"Š":{"ha":564,"x_min":0,"x_max":0,"o":"m 478 259 b 440 302 465 273 453 287 b 268 500 383 368 325 434 b 143 645 226 548 184 596 b 159 827 124 705 125 772 b 293 909 188 874 238 905 b 443 760 343 859 393 810 b 486 803 471 733 513 776 b 339 947 437 851 388 899 b 304 969 329 958 320 968 b 198 943 268 972 229 959 b 75 769 132 908 87 842 b 79 648 68 729 70 688 b 98 604 83 632 87 617 b 144 552 113 587 129 569 b 314 356 200 487 257 421 b 429 223 352 311 391 267 b 326 30 450 143 401 59 b 149 188 267 83 208 135 b 122 213 140 196 131 204 b 79 170 93 238 50 196 b 240 26 133 122 186 74 b 297 -25 259 9 278 -9 b 398 1 325 -48 374 -17 b 466 78 426 21 450 48 b 494 175 483 108 492 141 b 478 259 496 201 495 238 z m 270 1038 b 322 1038 283 1018 309 1019 b 408 1159 351 1078 379 1119 b 397 1200 417 1172 410 1193 b 355 1190 382 1209 365 1203 b 297 1107 336 1162 316 1134 b 242 1190 278 1134 260 1162 b 189 1159 220 1222 168 1192 b 270 1038 216 1119 243 1078 z "},"š":{"ha":564,"x_min":0,"x_max":0,"o":"m 478 259 b 440 302 465 273 453 287 b 268 500 383 368 325 434 b 143 645 226 548 184 596 b 159 827 124 705 125 772 b 293 909 188 874 238 905 b 443 760 343 859 393 810 b 486 803 471 733 513 776 b 339 947 437 851 388 899 b 304 969 329 958 320 968 b 198 943 268 972 229 959 b 75 769 132 908 87 842 b 79 648 68 729 70 688 b 98 604 83 632 87 617 b 144 552 113 587 129 569 b 314 356 200 487 257 421 b 429 223 352 311 391 267 b 326 30 450 143 401 59 b 149 188 267 83 208 135 b 122 213 140 196 131 204 b 79 170 93 238 50 196 b 240 26 133 122 186 74 b 297 -25 259 9 278 -9 b 398 1 325 -48 374 -17 b 466 78 426 21 450 48 b 494 175 483 108 492 141 b 478 259 496 201 495 238 z m 270 1038 b 322 1038 283 1018 309 1019 b 408 1159 351 1078 379 1119 b 397 1200 417 1172 410 1193 b 355 1190 382 1209 365 1203 b 297 1107 336 1162 316 1134 b 242 1190 278 1134 260 1162 b 189 1159 220 1222 168 1192 b 270 1038 216 1119 243 1078 z "},"Ÿ":{"ha":614,"x_min":0,"x_max":0,"o":"m 486 944 b 379 412 446 767 413 590 b 307 376 355 400 331 388 b 235 412 283 388 259 400 b 128 944 201 590 168 767 b 70 928 120 981 62 965 b 135 619 93 825 115 722 b 162 477 144 572 153 525 b 178 390 167 448 171 419 b 210 357 183 370 194 365 b 277 324 232 346 255 335 b 277 -4 277 215 277 105 b 337 -4 277 -42 337 -42 b 337 324 337 105 337 215 b 394 353 356 333 375 343 b 421 366 403 357 413 361 b 440 411 436 375 437 394 b 449 457 443 426 446 442 b 502 734 466 549 483 642 b 544 928 515 799 529 863 b 486 944 552 965 494 981 z m 256 1092 b 297 1133 278 1092 297 1110 b 256 1174 297 1156 278 1174 b 214 1133 233 1174 214 1156 b 256 1092 214 1110 233 1092 z m 366 1092 b 407 1133 389 1092 407 1110 b 366 1174 407 1156 389 1174 b 324 1133 343 1174 324 1156 b 366 1092 324 1110 343 1092 z "},"ž":{"ha":539,"x_min":0,"x_max":0,"o":"m 438 34 b 143 34 340 34 241 34 b 393 717 226 261 309 489 b 467 922 417 785 442 853 b 438 960 474 940 457 960 b 143 960 340 960 241 960 b 100 960 128 960 114 960 b 100 900 61 960 61 900 b 395 900 198 900 297 900 b 146 216 312 672 229 444 b 71 12 121 148 96 80 b 100 -26 64 -7 82 -26 b 396 -26 199 -26 297 -26 b 438 -26 410 -26 424 -26 b 438 34 477 -26 477 34 z m 240 1038 b 293 1038 254 1018 279 1019 b 378 1159 321 1078 350 1119 b 367 1200 388 1172 381 1193 b 326 1190 352 1209 335 1203 b 267 1107 306 1162 287 1134 b 212 1190 249 1134 231 1162 b 160 1159 191 1222 138 1192 b 240 1038 187 1119 214 1078 z "},"’":{"ha":211,"x_min":0,"x_max":0,"o":"m 139 894 b 133 908 138 899 136 904 l 133 908 b 114 921 129 914 122 918 b 75 906 100 925 83 919 b 89 855 64 888 70 865 b 108 852 95 852 102 851 b 117 831 117 847 119 841 b 128 826 116 824 124 821 b 139 894 145 853 144 878 z "},"”":{"ha":285,"x_min":0,"x_max":0,"o":"m 133 908 l 133 908 b 114 921 129 914 122 918 b 75 906 100 925 83 919 b 89 855 64 888 70 865 b 108 852 95 852 102 851 b 117 831 117 847 119 841 b 128 826 116 824 124 821 b 139 894 145 853 144 878 b 133 908 138 899 136 904 z m 212 894 b 206 908 211 899 209 904 l 206 908 b 187 921 201 914 195 918 b 148 906 172 925 156 919 b 162 855 136 888 143 865 b 181 852 168 852 174 851 b 190 831 190 847 192 841 b 201 826 188 824 197 821 b 212 894 218 853 216 878 z "},"€":{"ha":661,"x_min":0,"x_max":0,"o":"m 536 139 b 463 5 512 94 488 49 b 317 88 406 20 356 43 b 272 163 300 107 282 138 b 244 277 258 200 249 238 b 241 302 242 285 241 293 b 412 302 298 302 355 302 b 412 362 450 302 450 362 b 236 362 353 362 294 362 b 234 417 235 380 235 399 b 234 426 234 420 234 423 b 412 426 293 426 353 426 b 412 487 450 426 450 487 b 235 487 353 487 294 487 b 244 587 236 520 239 554 b 326 814 256 666 278 752 b 360 849 335 825 348 838 b 362 850 360 849 361 850 b 366 853 363 851 366 853 b 375 859 369 855 372 857 b 385 865 378 861 382 863 b 392 868 387 865 392 868 b 452 877 411 876 433 879 b 525 753 476 835 500 794 b 577 783 544 719 596 750 b 529 864 561 810 545 837 b 502 911 520 880 511 895 b 496 919 500 913 498 916 b 458 936 487 933 473 935 b 261 826 375 947 304 893 b 175 487 198 727 179 602 b 98 487 150 487 124 487 b 98 426 60 487 60 426 b 174 426 124 426 149 426 b 175 362 174 405 174 383 b 98 362 150 362 124 362 b 98 302 60 362 60 302 b 179 302 125 302 152 302 b 228 115 186 237 200 173 b 471 -59 275 17 367 -37 b 505 -45 483 -61 498 -57 b 588 108 533 6 560 57 b 536 139 607 142 555 173 z "},"™":{"ha":797,"x_min":0,"x_max":0,"o":"m 370 523 b 173 523 305 523 239 523 b 173 493 154 523 154 493 b 260 493 202 493 231 493 b 260 488 260 491 260 490 b 260 276 260 418 260 347 b 290 276 260 257 290 257 b 290 488 290 347 290 418 b 289 493 290 490 290 491 b 370 493 316 493 343 493 b 370 523 390 493 390 523 z m 398 737 b 69 408 217 737 69 590 b 398 79 69 227 217 79 b 727 408 580 79 727 227 b 398 737 727 590 580 737 z m 398 116 b 106 408 237 116 106 247 b 398 700 106 569 237 700 b 690 408 559 700 690 569 b 398 116 690 247 559 116 z m 468 469 b 469 467 468 468 469 468 b 469 469 469 468 469 468 b 468 469 469 469 468 469 z m 591 525 b 548 488 577 513 559 502 b 535 443 539 477 538 456 b 520 379 530 422 525 400 b 506 443 516 400 511 422 b 493 488 503 456 502 477 b 450 525 481 502 464 513 b 424 514 441 533 424 528 b 424 276 424 435 424 355 b 455 276 424 257 455 257 b 455 481 455 344 455 413 b 468 469 460 476 465 472 b 469 470 468 472 468 475 b 469 469 469 470 469 469 b 472 467 470 468 471 467 b 469 467 470 466 470 466 b 471 461 470 465 470 463 b 478 430 473 451 476 440 b 506 308 487 390 497 349 b 520 298 508 300 514 297 b 535 308 527 297 533 300 b 563 430 544 349 554 390 b 570 461 565 440 568 451 b 571 469 570 462 571 466 b 577 474 573 470 575 472 b 586 482 580 476 583 479 b 586 276 586 413 586 345 b 616 276 586 257 616 257 b 616 514 616 355 616 435 b 591 525 616 528 600 533 z m 570 468 b 570 468 570 466 569 467 z "}}}
